<?xml version="1.0" encoding="UTF-8"?>
<svg width="919px" height="158px" viewBox="0 0 919 158" version="1.1" xmlns="http://www.w3.org/2000/svg" xmlns:xlink="http://www.w3.org/1999/xlink">
    <!-- Generator: Sketch 52.5 (67469) - http://www.bohemiancoding.com/sketch -->
    <title>Group 6</title>
    <desc>Created with Sketch.</desc>
    <g id="Assets" stroke="none" stroke-width="1" fill="none" fill-rule="evenodd">
        <g id="Group-6">
            <g id="icon-network-monitoring" transform="translate(8.000000, 0.000000)">
                <circle id="Oval" fill="#1096ED" opacity="0.119999997" cx="20" cy="28" r="20"></circle>
                <g id="03-Icons-/-48px-/-Monitor" stroke="#412BBC" stroke-width="2">
                    <circle id="Oval" cx="6" cy="42" r="5"></circle>
                    <circle id="Oval" cx="14" cy="18" r="5"></circle>
                    <path d="M8,37 L12,23" id="Line" stroke-linecap="square"></path>
                    <path d="M36,25 L40,11" id="Line" stroke-linecap="square"></path>
                    <path d="M29.3532715,27.7258301 L18.4260254,20.4750977" id="Line" stroke-linecap="square"></path>
                    <circle id="Oval" cx="34" cy="30" r="5"></circle>
                    <circle id="Oval" cx="42" cy="6" r="5"></circle>
                </g>
            </g>
            <g id="icon-open-access" transform="translate(0.000000, 106.000000)">
                <circle id="Oval" fill="#1096ED" opacity="0.119999997" cx="20" cy="20" r="20"></circle>
                <g id="03-Icons-/-48px-/-Access" transform="translate(8.000000, 0.000000)" stroke="#412BBC" stroke-width="2">
                    <rect id="Rectangle" x="6" y="21" width="36" height="26" rx="4"></rect>
                    <path d="M33,10 C33,5.02943725 28.9705627,1 24,1 C19.0294373,1 15,5.02943725 15,10 C15,13.3137085 15,16.9803752 15,21" id="Oval" stroke-linecap="round"></path>
                    <circle id="Oval" cx="24" cy="34" r="2"></circle>
                    <circle id="Oval" cx="15" cy="34" r="2"></circle>
                    <circle id="Oval" cx="33" cy="34" r="2"></circle>
                </g>
            </g>
            <g id="icon-PPC" transform="translate(122.000000, 0.000000)">
                <circle id="Oval" fill="#1096ED" opacity="0.119999997" cx="20" cy="20" r="20"></circle>
                <g id="03-Icons-/-48px-/-Quality" transform="translate(8.000000, 0.000000)" stroke="#412BBC" stroke-linecap="round" stroke-linejoin="round" stroke-width="2">
                    <path d="M12.2351808,3 L35.7648192,3 C37.1538621,3 38.4434587,3.7206204 39.1714525,4.9036103 L44.5834595,13.6981218 C45.4392897,15.0888457 45.3638238,16.8601616 44.3928076,18.1730538 L24.5515767,45 L3.70272447,18.1896034 C2.67863834,16.8726889 2.57939106,15.0584895 3.45371002,13.6377212 L8.82854751,4.9036103 C9.55654129,3.7206204 10.8461379,3 12.2351808,3 Z" id="Rectangle"></path>
                    <polygon id="Rectangle" points="20 3 28 3 36 16 24.5515767 45 12 16"></polygon>
                    <path d="M3,16 L45,16" id="Line"></path>
                </g>
            </g>
            <g id="icon-white-hat-security" transform="translate(122.000000, 106.000000)">
                <circle id="Oval" fill="#1096ED" opacity="0.119999997" transform="translate(20.000000, 28.000000) scale(-1, 1) translate(-20.000000, -28.000000) " cx="20" cy="28" r="20"></circle>
                <g id="03-Icons-/-48px-/-Security" transform="translate(8.000000, 0.000000)" stroke="#412BBC" stroke-width="2">
                    <path d="M7.4175228,8.14298694 L23.9996852,1 L40.582433,8.1430024 C42.0495539,8.7749633 43,10.2192386 43,11.8166798 L43,23.4602911 C43,30.593513 39.4350962,37.2548057 33.5,41.2117601 L25.1622084,46.7706021 C24.4641054,47.2360304 23.5497108,47.216248 22.8723901,46.7210633 L14.5,40.600063 C8.52932059,36.2349379 5,29.282734 5,21.8865641 L5,11.8166453 C5,10.2192216 5.95042556,8.77495859 7.4175228,8.14298694 Z" id="Rectangle"></path>
                    <polyline id="Path-3" stroke-linecap="round" points="16 24.3963631 21.0438251 29 32 19"></polyline>
                </g>
            </g>
            <g id="icon-localized-serach" transform="translate(243.000000, 0.000000)">
                <circle id="Oval" fill="#1096ED" opacity="0.119999997" cx="20" cy="20" r="20"></circle>
                <g id="03-Icons-/-48px-/-Localization" transform="translate(4.000000, 0.000000)">
                    <path d="M24.7355916,44.2061398 C34.9118639,33.156072 40,24.7540254 40,19 C40,10.163444 32.836556,3 24,3 C15.163444,3 8,10.163444 8,19 C8,24.7540268 13.0881386,33.1560761 23.2644159,44.206148 L23.2644248,44.2061399 C23.6385516,44.6123913 24.2711731,44.6384336 24.6774246,44.2643068 C24.6976032,44.2457238 24.7170086,44.2263184 24.7355916,44.2061398 Z" id="Oval"></path>
                    <path d="M24.7355916,44.2061398 C34.9118639,33.156072 40,24.7540254 40,19 C40,10.163444 32.836556,3 24,3 C15.163444,3 8,10.163444 8,19 C8,24.7540268 13.0881386,33.1560761 23.2644159,44.206148 L23.2644248,44.2061399 C23.6385516,44.6123913 24.2711731,44.6384336 24.6774246,44.2643068 C24.6976032,44.2457238 24.7170086,44.2263184 24.7355916,44.2061398 Z" id="Oval" stroke="#412BBC" stroke-width="2"></path>
                    <circle id="Oval" stroke="#412BBC" stroke-width="2" cx="24" cy="19" r="6"></circle>
                </g>
            </g>
            <g id="icon-purchase-validation" transform="translate(239.000000, 106.000000)">
                <circle id="Oval" fill="#1096ED" opacity="0.119999997" cx="36" cy="20" r="20"></circle>
                <g id="03-Icons-/-48px-/-Purchase">
                    <path d="M3.00343911,21 L44.9971094,21 C46.1016789,21 46.9971094,21.8954305 46.9971094,23 C46.9971094,23.2053357 46.9654885,23.4094468 46.9033583,23.6051573 L40.8048565,42.8154719 C40.0138197,45.3072424 37.7004282,47 35.08611,47 L12.9144385,47 C10.3001203,47 7.98672887,45.3072424 7.195692,42.8154719 L1.09719026,23.6051573 C0.76297112,22.5523651 1.34548965,21.4279703 2.39828182,21.0937512 C2.59399228,21.031621 2.79810342,21 3.00343911,21 Z" id="Rectangle" stroke="#412BBC" stroke-width="2"></path>
                    <path d="M24,1 L24,1 C25.6568542,1 27,2.34314575 27,4 L27,21 L21,21 L21,4 C21,2.34314575 22.3431458,1 24,1 Z" id="Rectangle" stroke="#412BBC" stroke-width="2"></path>
                    <rect id="Rectangle" fill="#412BBC" fill-rule="evenodd" x="17" y="28" width="2" height="12" rx="1"></rect>
                    <rect id="Rectangle" fill="#412BBC" fill-rule="evenodd" x="11" y="28" width="2" height="12" rx="1"></rect>
                    <rect id="Rectangle" fill="#412BBC" fill-rule="evenodd" x="23" y="28" width="2" height="12" rx="1"></rect>
                    <rect id="Rectangle" fill="#412BBC" fill-rule="evenodd" x="29" y="28" width="2" height="12" rx="1"></rect>
                    <rect id="Rectangle" fill="#412BBC" fill-rule="evenodd" x="35" y="28" width="2" height="12" rx="1"></rect>
                </g>
            </g>
            <g id="icon-grow" transform="translate(361.000000, 0.000000)">
                <circle id="Oval" fill="#1096ED" opacity="0.119999997" cx="44" cy="28" r="20"></circle>
                <g id="03-Icons-/-48px-/-Invest">
                    <rect id="Rectangle" stroke="#412BBC" stroke-width="1" fill="#D8D8D8" fill-rule="evenodd" x="0.5" y="46.5" width="47" height="1" rx="0.5"></rect>
                    <path d="M36.2351643,41.1002227 C37.5543374,37.5514505 37.7635659,34.6037219 36.8628498,32.2570367 C35.9621337,29.9103515 34.0465249,28.433469 31.1160236,27.8263892 C29.5850991,31.2352724 29.3639077,34.3159914 30.4524494,37.0685462 C31.5409911,39.821101 33.4685627,41.1649932 36.2351643,41.1002227 Z" id="Path-17" stroke="#412BBC" stroke-width="2" transform="translate(33.592483, 34.464423) scale(-1, 1) rotate(-17.000000) translate(-33.592483, -34.464423) "></path>
                    <circle id="Oval" stroke="#412BBC" stroke-width="2" cx="24" cy="13" r="12"></circle>
                    <path d="M24,46.7763199 C29.8020833,41.676385 31.0492771,34.0842783 27.7415813,24" id="Path-2" stroke="#412BBC" stroke-width="2"></path>
                    <path d="M27.1533059,42.2736652 C28.8179423,38.4575871 29.0819633,35.2878252 27.9453688,32.7643794 C26.8087744,30.2409336 24.3915087,28.6528071 20.6935717,28 C18.7617308,31.6656522 18.4826141,34.9784218 19.8562216,37.9383087 C21.229829,40.8981956 23.6621905,42.3433144 27.1533059,42.2736652 Z" id="Path-17" stroke="#412BBC" stroke-width="2"></path>
                    <path d="M28.5412698,15.5989418 C28.5412698,16.5019446 28.2280455,17.2638417 27.6015873,17.8846561 C26.9751291,18.5054705 26.1313986,18.8948846 25.0703704,19.0529101 L25.0703704,20.1195767 C25.0703704,20.37919 24.9913588,20.5908281 24.8333333,20.7544974 C24.6753079,20.9181666 24.4664916,21 24.2068783,21 C23.947265,21 23.7384488,20.9181666 23.5804233,20.7544974 C23.4223978,20.5908281 23.3433862,20.37919 23.3433862,20.1195767 L23.3433862,19.0867725 C22.6999968,19.0303348 22.073548,18.8948864 21.4640212,18.6804233 C20.8544943,18.4659601 20.3296318,18.183776 19.889418,17.8338624 C19.74268,17.7322746 19.6410938,17.619401 19.5846561,17.4952381 C19.5282184,17.3710752 19.5,17.2186958 19.5,17.0380952 C19.5,16.801057 19.570546,16.5922408 19.7116402,16.4116402 C19.8527344,16.2310397 20.0135793,16.1407407 20.1941799,16.1407407 C20.3070552,16.1407407 20.4114634,16.1604936 20.5074074,16.2 C20.6033514,16.2395064 20.7303343,16.3044087 20.8883598,16.394709 C21.4075864,16.733335 21.9183396,16.9816571 22.4206349,17.1396825 C22.9229302,17.297708 23.4506145,17.3767196 24.0037037,17.3767196 C24.7599685,17.3767196 25.3440897,17.2299838 25.7560847,16.9365079 C26.1680797,16.643032 26.3740741,16.2197559 26.3740741,15.6666667 C26.3740741,15.3393282 26.2612004,15.0740751 26.0354497,14.8708995 C25.809699,14.6677239 25.5275149,14.5068789 25.1888889,14.3883598 C24.8502629,14.2698407 24.3761935,14.1315705 23.7666667,13.973545 C22.9201016,13.7590818 22.2315723,13.5418 21.7010582,13.3216931 C21.1705441,13.1015862 20.7134058,12.7657871 20.3296296,12.3142857 C19.9458535,11.8627843 19.7539683,11.2532666 19.7539683,10.4857143 C19.7539683,9.571424 20.0813018,8.79259581 20.7359788,8.14920635 C21.3906558,7.50581689 22.2484956,7.10511543 23.3095238,6.94708995 L23.3095238,5.88042328 C23.3095238,5.62080999 23.3885354,5.40917189 23.5465608,5.24550265 C23.7045863,5.0818334 23.9134026,5 24.1730159,5 C24.4326292,5 24.6414454,5.0818334 24.7994709,5.24550265 C24.9574964,5.40917189 25.0365079,5.62080999 25.0365079,5.88042328 L25.0365079,6.93015873 C26.1765489,7.07689668 27.1585497,7.4888855 27.9825397,8.16613757 C28.2534405,8.36931319 28.3888889,8.63456626 28.3888889,8.96190476 C28.3888889,9.19894298 28.3183429,9.40775924 28.1772487,9.58835979 C28.0361545,9.76896034 27.8696659,9.85925926 27.6777778,9.85925926 C27.57619,9.85925926 27.4774255,9.84232821 27.3814815,9.80846561 C27.2855374,9.77460301 27.1585546,9.70687881 27.0005291,9.60529101 C26.5377402,9.27795251 26.1003548,9.03245232 25.6883598,8.86878307 C25.2763648,8.70511382 24.7881862,8.62328042 24.2238095,8.62328042 C23.5239824,8.62328042 22.9652578,8.77848169 22.547619,9.08888889 C22.1299803,9.39929608 21.921164,9.82539412 21.921164,10.3671958 C21.921164,10.7396844 22.0396814,11.0416214 22.2767196,11.2730159 C22.5137578,11.5044103 22.812873,11.6821863 23.1740741,11.8063492 C23.5352752,11.9305121 24.0262756,12.0716041 24.6470899,12.2296296 C25.47108,12.4328052 26.1426782,12.6416215 26.6619048,12.8560847 C27.1811313,13.0705478 27.6241604,13.3950596 27.9910053,13.8296296 C28.3578502,14.2641997 28.5412698,14.8539645 28.5412698,15.5989418 Z" id="$" fill="#412BBC" fill-rule="evenodd"></path>
                </g>
            </g>
            <g id="icon-protected" transform="translate(490.000000, 0.000000)">
                <circle id="Oval" fill="#1096ED" opacity="0.119999997" cx="20" cy="28" r="20"></circle>
                <g id="03-Icons-/-48px-/-Blacklist" transform="translate(16.000000, 0.000000)">
                    <circle id="Oval" stroke="#412BBC" stroke-width="2" cx="6" cy="6" r="5"></circle>
                    <circle id="Oval" stroke="#412BBC" stroke-width="2" cx="6" cy="24" r="5"></circle>
                    <circle id="Oval" stroke="#412BBC" stroke-width="2" cx="6" cy="42" r="5"></circle>
                    <rect id="Rectangle" fill="#412BBC" fill-rule="evenodd" x="16" y="23" width="14" height="2" rx="1"></rect>
                    <rect id="Rectangle" fill="#412BBC" fill-rule="evenodd" x="16" y="5" width="32" height="2" rx="1"></rect>
                    <rect id="Rectangle" fill="#412BBC" fill-rule="evenodd" x="16" y="41" width="8" height="2" rx="1"></rect>
                    <rect id="Rectangle" stroke="#412BBC" stroke-width="2" x="29" y="33" width="18" height="14" rx="4"></rect>
                    <path d="M42,33 C42,31.1911688 42,29.5411688 42,28.05 C42,25.8132468 40.209139,24 38,24 C35.790861,24 34,25.8132468 34,28.05 C34,29.5411688 34,31.1911688 34,33" id="Oval" stroke="#412BBC" stroke-width="2" stroke-linecap="round"></path>
                </g>
            </g>
            <g id="icon-safe" transform="translate(620.000000, 0.000000)">
                <circle id="Oval" fill="#1096ED" opacity="0.119999997" cx="44" cy="20" r="20"></circle>
                <g id="03-Icons-/-48px-/-Encrypted">
                    <g id="Group" stroke-width="1" fill-rule="evenodd">
                        <rect id="Rectangle" fill="#412BBC" x="0" y="0" width="2" height="12" rx="1"></rect>
                        <rect id="Rectangle" fill="#412BBC" x="18" y="0" width="2" height="12" rx="1"></rect>
                        <rect id="Rectangle" fill="#412BBC" x="24" y="0" width="2" height="12" rx="1"></rect>
                        <path d="M10,11 C11.6568542,11 13,8.76142375 13,6 C13,3.23857625 11.6568542,1 10,1 C8.34314575,1 7,3.23857625 7,6 C7,8.76142375 8.34314575,11 10,11 Z" id="Oval" stroke="#412BBC" stroke-width="2"></path>
                        <path d="M33,11 C34.6568542,11 36,8.76142375 36,6 C36,3.23857625 34.6568542,1 33,1 C31.3431458,1 30,3.23857625 30,6 C30,8.76142375 31.3431458,11 33,11 Z" id="Oval" stroke="#412BBC" stroke-width="2"></path>
                        <path d="M44,11 C45.6568542,11 47,8.76142375 47,6 C47,3.23857625 45.6568542,1 44,1 C42.3431458,1 41,3.23857625 41,6 C41,8.76142375 42.3431458,11 44,11 Z" id="Oval" stroke="#412BBC" stroke-width="2"></path>
                    </g>
                    <g id="Group" stroke-width="1" fill-rule="evenodd" transform="translate(24.500000, 42.000000) scale(-1, 1) translate(-24.500000, -42.000000) translate(1.000000, 36.000000)">
                        <rect id="Rectangle" fill="#412BBC" x="0" y="0" width="2" height="12" rx="1"></rect>
                        <rect id="Rectangle" fill="#412BBC" x="18" y="0" width="2" height="12" rx="1"></rect>
                        <rect id="Rectangle" fill="#412BBC" x="24" y="0" width="2" height="12" rx="1"></rect>
                        <path d="M10,11 C11.6568542,11 13,8.76142375 13,6 C13,3.23857625 11.6568542,1 10,1 C8.34314575,1 7,3.23857625 7,6 C7,8.76142375 8.34314575,11 10,11 Z" id="Oval" stroke="#412BBC" stroke-width="2"></path>
                        <path d="M33,11 C34.6568542,11 36,8.76142375 36,6 C36,3.23857625 34.6568542,1 33,1 C31.3431458,1 30,3.23857625 30,6 C30,8.76142375 31.3431458,11 33,11 Z" id="Oval" stroke="#412BBC" stroke-width="2"></path>
                        <path d="M44,11 C45.6568542,11 47,8.76142375 47,6 C47,3.23857625 45.6568542,1 44,1 C42.3431458,1 41,3.23857625 41,6 C41,8.76142375 42.3431458,11 44,11 Z" id="Oval" stroke="#412BBC" stroke-width="2"></path>
                    </g>
                    <rect id="Rectangle" fill="#412BBC" fill-rule="evenodd" x="46" y="18" width="2" height="12" rx="1"></rect>
                    <rect id="Rectangle" fill="#412BBC" fill-rule="evenodd" x="12" y="18" width="2" height="12" rx="1"></rect>
                    <rect id="Rectangle" fill="#412BBC" fill-rule="evenodd" x="18" y="18" width="2" height="12" rx="1"></rect>
                    <path d="M4,29 C5.65685425,29 7,26.7614237 7,24 C7,21.2385763 5.65685425,19 4,19 C2.34314575,19 1,21.2385763 1,24 C1,26.7614237 2.34314575,29 4,29 Z" id="Oval" stroke="#412BBC" stroke-width="2"></path>
                    <path d="M38,29 C39.6568542,29 41,26.7614237 41,24 C41,21.2385763 39.6568542,19 38,19 C36.3431458,19 35,21.2385763 35,24 C35,26.7614237 36.3431458,29 38,29 Z" id="Oval" stroke="#412BBC" stroke-width="2"></path>
                    <path d="M27,29 C28.6568542,29 30,26.7614237 30,24 C30,21.2385763 28.6568542,19 27,19 C25.3431458,19 24,21.2385763 24,24 C24,26.7614237 25.3431458,29 27,29 Z" id="Oval" stroke="#412BBC" stroke-width="2"></path>
                </g>
            </g>
            <g id="icon-about-us" transform="translate(480.000000, 102.000000)">
                <circle id="Oval" fill="#1096ED" opacity="0.119999997" cx="20" cy="36" r="20"></circle>
                <g id="03-Icons-/-48px-/-About-us" transform="translate(8.000000, 0.000000)" fill="#412BBC" fill-rule="nonzero">
                    <path d="M26.1818182,31.1586415 C26.1818182,31.9787447 26.6426321,32.7280947 27.3701692,33.0936694 L35.6196237,37.238877 C38.3046504,38.5885528 40,41.3448834 40,44.3589057 L40,45 C40,46.6568542 38.6568542,48 37,48 L3,48 C1.34314575,48 3.33066907e-16,46.6568542 0,45 L0,44.1887925 C0,41.2763826 1.58337159,38.5958023 4.12924261,37.2008822 L11.8342396,32.9764212 C12.5243532,32.5985573 12.9545455,31.8703302 12.9545455,31.0779245 L12.9545455,28.2501349 C12.8510031,28.1121878 12.7286958,27.9428317 12.5915425,27.7437524 C12.1634258,27.122337 11.7365825,26.4175311 11.3382111,25.6404082 C10.7429995,24.4792994 10.2645117,23.2600185 9.94374172,21.9978071 C9.12833748,21.321623 8.63636364,20.3147678 8.63636364,19.2264151 L8.63636364,15.754717 C8.63636364,14.888237 8.95053745,14.0713268 9.5,13.4279169 L9.5,8.86659895 C9.49632314,8.82984391 9.49252082,8.78593048 9.48889319,8.73519922 C9.39654028,7.44367275 9.61820326,5.91394221 10.4237347,4.42886678 C11.9326075,1.64711334 15.0455682,3.55271368e-15 20,3.55271368e-15 C24.9540493,3.55271368e-15 28.0669132,1.64711034 29.5759211,4.42882923 C30.381593,5.91401224 30.6033498,7.44382909 30.5110825,8.73531756 C30.5074629,8.78598193 30.503669,8.82983911 30.5,8.86654942 L30.5,13.4279169 C31.0494625,14.0713268 31.3636364,14.888237 31.3636364,15.754717 L31.3636364,19.2264151 C31.3636364,20.6270826 30.5490236,21.8687806 29.3292618,22.4590629 C28.7070841,24.2635886 27.854038,25.949405 26.7804672,27.4724615 C26.5753154,27.7641173 26.3737612,28.0322861 26.1818182,28.2694942 L26.1818182,31.1586415 Z M26.4721944,34.8807457 C25.0681797,34.1752526 24.1818182,32.7339007 24.1818182,31.1586415 L24.1818182,27.5301363 L24.428998,27.2474342 C24.6422893,27.0034906 24.8876676,26.6871063 25.1451913,26.3209965 C26.1890544,24.840085 27.0029703,23.1832717 27.5742922,21.3985879 L27.7332174,20.902141 L28.2312079,20.7481209 C28.8983917,20.5417722 29.3636364,19.9264954 29.3636364,19.2264151 L29.3636364,15.754717 C29.3636364,15.3034597 29.1686326,14.880239 28.8279302,14.5710161 L28.5,14.2733853 L28.5,8.81132075 L28.5085019,8.68119926 C28.5093971,8.67437799 28.5124968,8.6441701 28.5161671,8.59279568 C28.5836074,7.64881658 28.4145007,6.48221322 27.8179312,5.38249152 C26.6785442,3.28213495 24.255445,2 20,2 C15.7441818,2 13.3210175,3.28213194 12.1817653,5.38245398 C11.585326,6.48204763 11.4162967,7.64854496 11.4837995,8.59254987 C11.4874782,8.64399577 11.4905854,8.67425111 11.4914839,8.6810915 L11.5,8.81132075 L11.5,14.2733853 L11.1720698,14.5710161 C10.8313674,14.880239 10.6363636,15.3034597 10.6363636,15.754717 L10.6363636,19.2264151 C10.6363636,19.7725173 10.9174212,20.2747209 11.3756269,20.5724503 L11.7154269,20.793243 L11.8056642,21.1883008 C12.0840564,22.4070978 12.5375402,23.5957435 13.1179885,24.7280527 C13.4749371,25.42437 13.8573652,26.0558375 14.2385199,26.6090871 C14.4633711,26.9354607 14.6339628,27.158743 14.7232617,27.2660705 L14.9545455,27.5440479 L14.9545455,31.0779245 C14.9545455,32.600043 14.1267267,34.00137 12.7952574,34.7304008 L5.09051407,38.9547229 C3.18589971,39.9982891 2,42.0059665 2,44.1887925 L2,45 C2,45.5522847 2.44771525,46 3,46 L37,46 C37.5522847,46 38,45.5522847 38,45 L38,44.3589057 C38,42.1000828 36.7302194,40.0356264 34.7215805,39.0259188 L26.4721944,34.8807457 Z M38.6581782,35.0424295 L44.3499918,38.5469853 C47.1666076,40.0307374 48,41.6391828 48,47 C48,47.5522847 47.5522847,48 47,48 C46.4477153,48 46,47.5522847 46,47 C46,42.3375839 45.5290342,41.4286211 43.3598998,40.283438 L37.6686171,36.7791618 C37.0512449,36.4544122 36.5693586,35.8548802 36.2172427,35.1065484 C35.6913,33.9918486 36.4797111,32.6669452 37.7226451,32.6669452 L41.1801459,32.6669452 L41.2806916,32.6720128 C41.3002029,32.6739846 41.3491679,32.6779172 41.4236392,32.6821578 C42.096382,32.720465 42.8768471,32.6795438 43.592386,32.5031327 C43.856041,32.4381303 44.0976598,32.3568832 44.3125172,32.2596456 C44.6431724,32.109846 44.7731889,31.616485 44.5431551,31.2713316 C41.5163444,26.7284288 39.3064914,21.5496635 39.1952639,16.4455514 C39.1846386,16.3772037 39.1673236,16.2738194 39.1427347,16.1394016 C39.0873454,15.8366104 39.0164817,15.4976604 38.9288642,15.1319235 C38.6788962,14.0884962 38.3465706,13.0462451 37.924392,12.0819001 C36.7854049,9.48021264 35.2571468,8 33.3117666,8 C32.7594818,8 32.3117666,7.55228475 32.3117666,7 C32.3117666,6.44771525 32.7594818,6 33.3117666,6 C36.2376336,6 38.3339706,8.03043233 39.756513,11.2798198 C40.2308698,12.363351 40.5981581,13.5152531 40.8738309,14.6659789 C40.9701877,15.0681955 41.0484106,15.4423453 41.1100888,15.7795154 C41.147775,15.9855309 41.1719291,16.136235 41.1840638,16.2226325 L41.1936169,16.3434548 C41.2786778,20.9997036 43.3611317,25.8902187 46.2074833,30.1622727 C47.1107405,31.5175619 46.610959,33.4140347 45.1374921,34.0815721 C44.8049341,34.2320774 44.4482991,34.3520001 44.0711368,34.4449868 C43.1302272,34.6769616 42.1646178,34.7275902 41.3099397,34.6789233 C41.2391282,34.6748911 41.1805115,34.6707179 41.1352153,34.6669452 L38.2641382,34.6669452 C38.3891131,34.8418262 38.5227439,34.9696565 38.6581782,35.0424295 Z" id="Combined-Shape"></path>
                </g>
            </g>
            <g id="Icon-services" transform="translate(358.000000, 106.000000)">
                <circle id="Oval" fill="#1096ED" opacity="0.119999997" cx="36" cy="20" r="20"></circle>
                <g id="03-Icons-/-48px-/-Services" fill="#412BBC" fill-rule="nonzero">
                    <path d="M47.8497932,21.3343273 C48.0534582,23.1558119 48.0501324,24.9911959 47.8388158,26.7946497 C47.6960645,27.9968491 46.619394,28.8985502 45.4737744,28.8039601 L45.2151737,28.796935 C43.5842099,28.796935 42.0579605,29.8082706 41.4319662,31.3018218 C40.7651949,32.8905619 41.1820754,34.7452477 42.4694766,35.9110791 C43.3644274,36.7208782 43.4717185,38.0880845 42.7157266,39.0266477 C41.5733004,40.4495062 40.2673817,41.7407381 38.8263433,42.8707062 C37.8854366,43.5975729 36.5487814,43.4874754 35.7396261,42.6073664 C34.6482937,41.4085001 32.6576006,40.9526984 31.1617262,41.5636663 C29.59196,42.2063764 28.5732301,43.7937589 28.6353601,45.5094855 C28.6752925,46.7013318 27.7931652,47.7232427 26.6077714,47.8540369 C25.7321312,47.9514466 24.8535033,48 23.9722929,48 C23.0462964,48 22.1234192,47.946498 21.208202,47.839739 C20.0088675,47.701628 19.1244868,46.6501366 19.1954219,45.4461373 C19.2937288,43.7124537 18.2887016,42.0994478 16.6949958,41.4327973 C15.1973304,40.8042099 13.185772,41.258992 12.0885646,42.4725744 C11.2764515,43.3674287 9.90995416,43.4751998 8.97046989,42.7181996 C7.56415475,41.5863678 6.28504528,40.2928448 5.17375476,38.8774213 C4.4350937,37.9412379 4.54456939,36.5945905 5.42293345,35.7877383 C6.68815325,34.6279821 7.10414983,32.7885437 6.45978194,31.2175751 C5.81809062,29.6560694 4.28482066,28.6442978 2.65221998,28.6856853 C1.47837866,28.6856853 0.280842272,27.8405868 0.150172395,26.665824 C-0.0533726262,24.8454108 -0.0501347699,23.0085123 0.161064027,21.2046549 C0.304550541,20.0118372 1.28182771,19.1558695 2.48243166,19.1949872 C4.33942642,19.1949872 5.93216622,18.2057993 6.56489841,16.6992276 C7.2322354,15.108041 6.81668591,13.2538539 5.52802219,12.0868756 C4.63724146,11.2764012 4.52884377,9.91222148 5.28338017,8.97371404 C6.41882022,7.55681403 7.72691968,6.26386844 9.1699695,5.13171619 C10.1092,4.3996959 11.4554005,4.51146051 12.2602862,5.39370775 C13.3475071,6.58943083 15.3467835,7.04529313 16.8351052,6.43737968 C18.406391,5.79379248 19.4245506,4.20682939 19.3641693,2.48900047 C19.3241952,1.29804799 20.2069596,0.276367949 21.3922227,0.145554319 C23.1852692,-0.0533713437 24.9938928,-0.0481729897 26.7926081,0.159862494 C27.9934839,0.299722533 28.875666,1.34949708 28.8041036,2.55317592 C28.7058457,4.2850317 29.7104304,5.89955937 31.2976286,6.56721331 C32.8025492,7.19512789 34.8152132,6.74028981 35.9069361,5.5312467 C36.7155555,4.63588102 38.084493,4.52725855 39.022308,5.27981942 C40.422285,6.40127677 41.7019446,7.69336247 42.8259437,9.12066245 C43.5653492,10.0577892 43.4570833,11.4068153 42.5770195,12.2113102 C41.3140593,13.3697978 40.8976967,15.2112103 41.5401078,16.782761 C42.1696426,18.3188539 43.6729066,19.3135965 45.3774311,19.3135965 C46.5422265,19.3135965 47.7183843,20.1662088 47.8497932,21.3343273 Z M45.3774311,21.3135965 C42.8662217,21.3135965 40.6287426,19.8330077 39.689151,17.5403613 C38.7290399,15.1916125 39.3465537,12.4605854 41.226341,10.7362967 C41.3332626,10.638556 41.3464409,10.4743506 41.2552491,10.358773 C40.2246768,9.05011073 39.0525983,7.86665079 37.7712465,6.8402182 C37.658385,6.74965119 37.489361,6.76306292 37.3912782,6.87166767 C35.7321848,8.70905287 32.8163529,9.36799613 30.5248226,8.41187114 C28.1538001,7.41450878 26.6611786,5.01562813 26.8074717,2.43718621 C26.8161877,2.29057467 26.7095771,2.16371071 26.5620332,2.14652668 C24.913334,1.95584202 23.2557693,1.95107784 21.6121898,2.13342105 C21.4663678,2.14951497 21.3581064,2.27481291 21.3629892,2.42032577 C21.452651,4.97111873 19.9416735,7.3262166 17.5922651,8.28851662 C15.3241917,9.21492486 12.431992,8.55546387 10.7816544,6.74042419 C10.6828852,6.63216204 10.5160365,6.61830989 10.4019585,6.70721385 C9.08184369,7.74292277 7.88326216,8.92761915 6.84308892,10.225635 C6.75083095,10.3403875 6.76411717,10.5075939 6.87224368,10.6059762 C8.78706782,12.3399825 9.40519236,15.0980621 8.40906756,17.4732043 C7.45445341,19.7461959 5.12168372,21.1949872 2.45029698,21.1944708 C2.26244349,21.188431 2.1674224,21.2716571 2.14712245,21.4403706 C1.95404936,23.0894551 1.95108045,24.7737719 2.13785003,26.4441547 C2.1435321,26.4952381 2.41340293,26.6856853 2.62667776,26.6860116 C5.06756994,26.6236454 7.35433315,28.1326308 8.30992297,30.4579846 C9.27339984,32.8069399 8.65590371,35.5373615 6.7751414,37.2613504 C6.6674308,37.3602918 6.65406106,37.5247514 6.74535411,37.6404614 C7.76418146,38.9381126 8.93618384,40.1233215 10.224879,41.1604906 C10.3395834,41.2529149 10.5065708,41.2397452 10.6062736,41.129887 C12.269984,39.2897113 15.1860111,38.6304429 17.4679023,39.5881797 C19.8439286,40.5820753 21.3384368,42.9806677 21.1920872,45.5615626 C21.1834713,45.707807 21.2913747,45.8360996 21.4384643,45.853039 C22.2781259,45.9509834 23.1236313,46 23.9722929,46 C24.7797518,46 25.5845587,45.955526 26.3875365,45.8662 C26.5333882,45.8501069 26.6414557,45.7249148 26.636576,45.5791619 C26.5442702,43.0302742 28.0565194,40.6738909 30.4047111,39.7124701 C32.6807106,38.782871 35.5636064,39.442957 37.2152707,41.2573856 C37.3168433,41.3678626 37.4825742,41.3815135 37.5979358,41.2924278 C38.9127888,40.2613756 40.1095392,39.0780843 41.1571815,37.7732784 C41.2493973,37.6587923 41.236348,37.4925064 41.1272837,37.393819 C39.212002,35.6593985 38.5919318,32.9007291 39.5876128,30.5282844 C40.5254722,28.2906579 42.7797126,26.796935 45.2410368,26.7972695 L45.5806043,26.8075778 C45.6990034,26.8171957 45.8356803,26.7027302 45.8525868,26.5603598 C46.0459359,24.9102376 46.0489976,23.2276127 45.8622919,21.5575739 C45.8547252,21.4981275 45.5997527,21.3135965 45.3774311,21.3135965 Z M24.036477,30.7204547 C27.7147227,30.7204547 30.7082732,27.7269318 30.7082732,24.0486763 C30.7082732,20.3705295 27.7146602,17.376898 24.036477,17.376898 C20.3581456,17.376898 17.3645096,20.3705064 17.3645096,24.0486763 C17.3645096,27.7269549 20.3580831,30.7204547 24.036477,30.7204547 Z M24.036477,32.7204547 C19.2535247,32.7204547 15.3645096,28.8315354 15.3645096,24.0486763 C15.3645096,19.2659328 19.2535803,15.376898 24.036477,15.376898 C28.8192324,15.376898 32.7082732,19.2659627 32.7082732,24.0486763 C32.7082732,28.8315055 28.8192881,32.7204547 24.036477,32.7204547 Z" id="Shape"></path>
                </g>
            </g>
            <g id="icon-why" transform="translate(617.000000, 102.000000)">
                <circle id="Oval" fill="#1096ED" opacity="0.119999997" cx="36" cy="20" r="20"></circle>
                <g id="03-Icons-/-48px-/-Question">
                    <path d="M11,14.0888889 C11.1084198,8.49909295 13.8298124,1 24.3652568,1 C24.3652568,1 24.3652568,1 24.3652568,1 L24.3652568,1 C30.8525855,1 36.1116045,6.259019 36.1116045,12.7463477 C36.1116045,16.0797837 34.6953013,19.2562371 32.2156691,21.4840655 C26.3204584,26.7805513 23.4170363,32.6192096 23.5053665,39" id="Path-21" stroke="#412BBC" stroke-width="2" stroke-linecap="round" stroke-linejoin="round"></path>
                    <rect id="Rectangle" fill="#412BBC" fill-rule="evenodd" x="22" y="44" width="4" height="4" rx="2"></rect>
                </g>
            </g>
            <g id="icon-task" transform="translate(741.000000, 0.000000)">
                <circle id="Oval" fill="#1096ED" opacity="0.119999997" cx="36" cy="20" r="20"></circle>
                <g id="03-Icons-/-48px-/-Task">
                    <rect id="Rectangle" stroke="#412BBC" stroke-width="2" x="1" y="1" width="10" height="10" rx="2"></rect>
                    <rect id="Rectangle" stroke="#412BBC" stroke-width="2" x="1" y="19" width="10" height="10" rx="2"></rect>
                    <rect id="Rectangle" stroke="#412BBC" stroke-width="2" x="1" y="37" width="10" height="10" rx="2"></rect>
                    <rect id="Rectangle" fill="#412BBC" fill-rule="evenodd" x="16" y="23" width="32" height="2" rx="1"></rect>
                    <rect id="Rectangle" fill="#412BBC" fill-rule="evenodd" x="16" y="5" width="32" height="2" rx="1"></rect>
                    <rect id="Rectangle" fill="#412BBC" fill-rule="evenodd" x="16" y="41" width="8" height="2" rx="1"></rect>
                    <polyline id="Path-3" stroke="#412BBC" stroke-width="2" stroke-linecap="round" points="29 41.4756357 34.6743033 47 47 35"></polyline>
                </g>
            </g>
            <g id="icon-flexible-plans" transform="translate(863.000000, 0.000000)">
                <circle id="Oval" fill="#1096ED" opacity="0.119999997" cx="36" cy="22" r="20"></circle>
                <g id="03-Icons-/-48px-/-Plan">
                    <polyline id="Path-3" stroke="#412BBC" stroke-width="2" stroke-linecap="round" points="15 33.4756357 20.6743033 39 33 27"></polyline>
                    <rect id="Rectangle" stroke="#412BBC" stroke-width="2" x="10" y="1" width="28" height="46" rx="4"></rect>
                    <path d="M38,8 L43,8 C45.209139,8 47,9.790861 47,12 L47,36 C47,38.209139 45.209139,40 43,40 L38,40 L38,8 Z" id="Rectangle" stroke="#412BBC" stroke-width="2"></path>
                    <path d="M5,8 L10,8 L10,40 L5,40 C2.790861,40 1,38.209139 1,36 L1,12 C1,9.790861 2.790861,8 5,8 Z" id="Rectangle" stroke="#412BBC" stroke-width="2"></path>
                    <rect id="Rectangle" fill="#412BBC" fill-rule="evenodd" x="15" y="20" width="18" height="2" rx="1"></rect>
                    <rect id="Rectangle" fill="#412BBC" fill-rule="evenodd" x="15" y="14" width="18" height="2" rx="1"></rect>
                    <rect id="Rectangle" fill="#412BBC" fill-rule="evenodd" x="15" y="8" width="18" height="2" rx="1"></rect>
                </g>
            </g>
            <g id="icon-proxies" transform="translate(860.000000, 102.000000)">
                <circle id="Oval" fill="#1096ED" opacity="0.119999997" cx="36" cy="20" r="20"></circle>
                <g id="03-Icons-/-48px-/-Data" stroke="#412BBC" stroke-linecap="round" stroke-linejoin="round">
                    <g id="Group-2" transform="translate(1.000000, 5.000000)">
                        <path d="M39.0816,29.6816406 C43.6938667,28.5605469 46,25.3333333 46,20 C46,16 43.6938667,13.3818333 39.0816,12.1455 C38.6760333,5.3955 32.9881333,-5.32907052e-15 26.1318333,-5.32907052e-15 C21.9688333,-5.32907052e-15 17.9377,1.99725 15.4399,5.256 C15.3824,5.22675 15.3218333,5.2065 15.2635667,5.1795 C15.1117667,5.1075 14.9576667,5.03925 14.8005,4.97775 C14.7131,4.944 14.6257,4.91325 14.5375333,4.88325 C14.3819,4.83 14.2239667,4.78275 14.0629667,4.74 C13.9748,4.71675 13.8874,4.69275 13.7984667,4.67325 C13.6259667,4.635 13.4496333,4.60575 13.2717667,4.5795 C13.1943333,4.56825 13.1184333,4.55325 13.0402333,4.545 C12.7857,4.51725 12.5281,4.5 12.2666667,4.5 C8.4617,4.5 5.36666667,7.52775 5.36666667,11.25 C5.36666667,11.34525 5.3728,11.439 5.37893333,11.53275 L5.37893333,11.53575 C2.19036667,13.23675 1.42108547e-14,16.79925 1.42108547e-14,20.3655 C1.42108547e-14,25.67775 4.41753333,30 9.84783333,30" id="Path" stroke-width="2"></path>
                        <g id="Group" transform="translate(12.000000, 21.000000)" stroke-width="2">
                            <polyline id="Path-4" points="3.01980663e-14 6 6 -1.24344979e-14 12 6"></polyline>
                            <path d="M6,-1.77635684e-15 L6,12" id="Line"></path>
                        </g>
                        <g id="Group" transform="translate(31.000000, 33.000000) scale(1, -1) translate(-31.000000, -33.000000) translate(25.000000, 27.000000)" stroke-width="2">
                            <polyline id="Path-4" points="3.01980663e-14 6 6 -1.24344979e-14 12 6"></polyline>
                            <path d="M6,-1.77635684e-15 L6,12" id="Line"></path>
                        </g>
                    </g>
                </g>
            </g>
            <g id="icon-challenge" transform="translate(739.000000, 102.000000)">
                <circle id="Oval" fill="#1096ED" opacity="0.119999997" cx="36" cy="22" r="20"></circle>
                <g id="03-Icons-/-48px-/-Challenge" stroke="#412BBC" stroke-linejoin="round">
                    <g id="Group" transform="translate(1.000000, 5.000000)">
                        <polygon id="Rectangle" stroke-width="2" points="21 0 33 0 33 8 21 8 25 4"></polygon>
                        <polyline id="Path-20" stroke-width="2" stroke-linecap="round" points="1.13846432e-13 38 13 20 23 30 33 12 46 38"></polyline>
                        <path d="M33,13 L33,1" id="Line" stroke-width="2" stroke-linecap="round"></path>
                    </g>
                </g>
            </g>
        </g>
    </g>
</svg>