<?xml version="1.0" encoding="UTF-8"?>
<svg width="100px" height="80px" viewBox="0 0 100 80" version="1.1" xmlns="http://www.w3.org/2000/svg" xmlns:xlink="http://www.w3.org/1999/xlink">
    <g id="Design" stroke="none" stroke-width="1" fill="none" fill-rule="evenodd">
        <g id="03.00---Price-Aggregators" transform="translate(-428.000000, -4308.000000)" fill="#F3F4F8">
            <g id="Section-5" transform="translate(428.000000, 3984.000000)">
                <g id="quote" transform="translate(0.000000, 316.000000)">
                    <path d="M89.3854749,8 L91.8994413,12.057971 C74.580919,23.8454696 65.9217877,35.6327913 65.9217877,47.4202899 C65.9217877,53.410658 68.4357291,56.8888841 73.4636872,57.8550725 L85.1955307,46.5507246 C88.9199441,47.9033884 92.3184204,50.3671319 95.3910615,53.942029 C98.4637025,57.5169261 100,62.1062522 100,67.7101449 C100,73.3140377 97.8584944,78.0965986 93.575419,82.057971 C89.2923436,86.0193435 83.6592528,88 76.6759777,88 C69.6927025,88 63.9199483,85.5362565 59.3575419,80.6086957 C54.7951355,75.6811348 52.5139665,68.8696087 52.5139665,60.173913 C52.5139665,41.2366203 64.8043464,23.8454899 89.3854749,8 Z M36.8715084,8 L39.3854749,12.057971 C22.0669525,23.8454696 13.4078212,35.6327913 13.4078212,47.4202899 C13.4078212,53.410658 15.9217626,56.8888841 20.9497207,57.8550725 L32.6815642,46.5507246 C36.4059777,47.9033884 39.8044539,50.3671319 42.877095,53.942029 C45.949736,57.5169261 47.4860335,62.1062522 47.4860335,67.7101449 C47.4860335,73.3140377 45.3445279,78.0965986 41.0614525,82.057971 C36.7783771,86.0193435 31.1452863,88 24.1620112,88 C17.178736,88 11.4059818,85.5362565 6.84357542,80.6086957 C2.28116899,75.6811348 0,68.8696087 0,60.173913 C0,41.2366203 12.2903799,23.8454899 36.8715084,8 Z" id="icon-quote"></path>
                </g>
            </g>
        </g>
    </g>
</svg>