<?xml version="1.0" encoding="UTF-8"?>
<svg width="14px" height="63px" viewBox="0 0 14 63" version="1.1" xmlns="http://www.w3.org/2000/svg" xmlns:xlink="http://www.w3.org/1999/xlink">
    <g id="02-Component" stroke="none" stroke-width="1" fill="none" fill-rule="evenodd">
        <g id="02-Component-/-02-Bottom-/-01-Normal" transform="translate(-1756.000000, -773.000000)" fill="#FFFFFF" fill-rule="nonzero">
            <g id="Footer" transform="translate(0.000000, 528.000000)">
                <g id="Group" transform="translate(1756.000000, 245.000000)">
                    <path d="M14.0714286,28.3571429 C13.6726171,28.9404791 13.190479,29.4374979 12.625,29.8482143 C12.6309524,29.931548 12.6339286,30.0565468 12.6339286,30.2232143 C12.6339286,30.9970277 12.5208345,31.7693414 12.2946429,32.5401786 C12.0684512,33.3110158 11.7247047,34.0505917 11.2633929,34.7589286 C10.802081,35.4672654 10.2529794,36.0937473 9.61607143,36.6383929 C8.97916348,37.1830384 8.21131402,37.6175579 7.3125,37.9419643 C6.41368598,38.2663707 5.45238607,38.4285714 4.42857143,38.4285714 C2.81546812,38.4285714 1.33929241,37.9970281 -1.13686838e-13,37.1339286 C0.208334375,37.1577382 0.440474911,37.1696429 0.696428571,37.1696429 C2.03572098,37.1696429 3.22916143,36.7589327 4.27678571,35.9375 C3.65178259,35.9255952 3.09226437,35.7336328 2.59821429,35.3616071 C2.1041642,34.9895815 1.76488187,34.5148838 1.58035714,33.9375 C1.7767867,33.9672621 1.9583325,33.9821429 2.125,33.9821429 C2.38095366,33.9821429 2.63392732,33.9494051 2.88392857,33.8839286 C2.21725857,33.7470231 1.66518076,33.4151812 1.22767857,32.8883929 C0.790176384,32.3616045 0.571428571,31.7500035 0.571428571,31.0535714 L0.571428571,31.0178571 C0.9761925,31.2440488 1.41071196,31.3660713 1.875,31.3839286 C1.48214089,31.1220225 1.16964402,30.779764 0.9375,30.3571429 C0.705355982,29.9345217 0.589285714,29.4761929 0.589285714,28.9821429 C0.589285714,28.4583307 0.720236786,27.9732165 0.982142857,27.5267857 C1.70238455,28.4136949 2.57886388,29.1235092 3.61160714,29.65625 C4.6443504,30.1889908 5.74999411,30.4851188 6.92857143,30.5446429 C6.88095214,30.3184513 6.85714286,30.0982154 6.85714286,29.8839286 C6.85714286,29.0863055 7.13839004,28.4062528 7.70089286,27.84375 C8.26339567,27.2812472 8.94344839,27 9.74107143,27 C10.5744089,27 11.2767829,27.3035684 11.8482143,27.9107143 C12.4970271,27.7857137 13.10714,27.5535731 13.6785714,27.2142857 C13.4583322,27.8988129 13.0357174,28.4285696 12.4107143,28.8035714 C12.9642885,28.7440473 13.5178544,28.5952393 14.0714286,28.3571429 Z" id=""></path>
                    <path d="M3.11607143,53.2589286 L3.11607143,62.1071429 L0.169642857,62.1071429 L0.169642857,53.2589286 L3.11607143,53.2589286 Z M3.30357143,50.5267857 C3.30952384,50.9613117 3.15922772,51.3244033 2.85267857,51.6160714 C2.54612942,51.9077396 2.14285964,52.0535714 1.64285714,52.0535714 L1.625,52.0535714 C1.13690232,52.0535714 0.744049107,51.9077396 0.446428571,51.6160714 C0.148808036,51.3244033 0,50.9613117 0,50.5267857 C0,50.0863073 0.153272277,49.7217276 0.459821429,49.4330357 C0.76637058,49.1443438 1.1666642,49 1.66071429,49 C2.15476437,49 2.55059375,49.1443438 2.84821429,49.4330357 C3.14583482,49.7217276 3.29761902,50.0863073 3.30357143,50.5267857 Z M7.67857143,54.5162852 C7.79195692,54.3375794 7.9080273,54.1803668 8.02678571,54.0446429 C8.15178634,53.901785 8.31993942,53.7470246 8.53125,53.5803571 C8.74256058,53.4136896 9.00148656,53.2842267 9.30803571,53.1919643 C9.61458487,53.0997019 9.95535527,53.0535714 10.3303571,53.0535714 C11.3482194,53.0535714 12.1666636,53.3913657 12.7857143,54.0669643 C13.404765,54.7425629 13.7142857,55.7321363 13.7142857,57.0357143 L13.7142857,62.1071429 L10.7767857,62.1071429 L10.7767857,57.375 C10.7767857,56.7499969 10.6562512,56.2604184 10.4151786,55.90625 C10.1741059,55.5520816 9.79762161,55.375 9.28571429,55.375 C8.91071241,55.375 8.59672746,55.4776775 8.34375,55.6830357 C8.09077254,55.8883939 7.90178634,56.1428556 7.77678571,56.4464286 C7.7113092,56.6250009 7.67857143,56.8660699 7.67857143,57.1696429 L7.67857143,62.1071429 L4.74107143,62.1071429 C4.75297625,59.732131 4.75892857,57.806555 4.75892857,56.3303571 C4.75892857,54.8541593 4.75595241,53.9732157 4.75,53.6875 L4.74107143,53.2589286 L7.67857143,53.2589286 L7.67857143,54.5162852 Z" id=""></path>
                    <path d="M7.71428571,0.107142857 L7.71428571,2.46428571 L6.3125,2.46428571 C5.80059268,2.46428571 5.45535804,2.5714275 5.27678571,2.78571429 C5.09821339,3.00000107 5.00892857,3.32142643 5.00892857,3.75 L5.00892857,5.4375 L7.625,5.4375 L7.27678571,8.08035714 L5.00892857,8.08035714 L5.00892857,14.8571429 L2.27678571,14.8571429 L2.27678571,8.08035714 L0,8.08035714 L0,5.4375 L2.27678571,5.4375 L2.27678571,3.49107143 C2.27678571,2.38392304 2.58630643,1.52530067 3.20535714,0.915178571 C3.82440786,0.305056473 4.64880437,0 5.67857143,0 C6.5535758,0 7.23214045,0.0357139286 7.71428571,0.107142857 Z" id=""></path>
                </g>
            </g>
        </g>
    </g>
</svg>