<?xml version="1.0" encoding="UTF-8"?>
<svg width="18px" height="576px" viewBox="0 0 18 576" version="1.1" xmlns="http://www.w3.org/2000/svg" xmlns:xlink="http://www.w3.org/1999/xlink">
    <!-- Generator: Sketch 52.5 (67469) - http://www.bohemiancoding.com/sketch -->
    <title>Group 4</title>
    <desc>Created with Sketch.</desc>
    <g id="03-Icons" stroke="none" stroke-width="1" fill="none" fill-rule="evenodd">
        <g id="Group-4" fill="#412BBC">
            <path d="M3.32318501,562.366197 C4.89696337,560.788725 6.78921611,560 9,560 C11.2107839,560 13.0967916,560.782465 14.6580796,562.347418 C16.2193677,563.912371 17,565.796546 17,568 C17,570.203454 16.2193677,572.087629 14.6580796,573.652582 C13.0967916,575.217535 11.2107839,576 9,576 C6.78921611,576 4.90320843,575.217535 3.34192037,573.652582 C1.78063232,572.087629 1,570.203454 1,568 C1,565.796546 1.77438726,563.918631 3.32318501,562.366197 Z M8.19437939,574.347418 L8.19437939,572.807512 C7.74472843,572.807512 7.36377986,572.651019 7.05152225,572.338028 C6.73926464,572.025038 6.58313817,571.643195 6.58313817,571.192488 L6.58313817,570.403756 L2.76112412,566.57277 C2.66120169,567.073555 2.61124122,567.549294 2.61124122,568 C2.61124122,569.627551 3.14207119,571.042248 4.20374707,572.244131 C5.26542295,573.446015 6.59562042,574.147104 8.19437939,574.347418 Z M13.7025761,572.319249 C14.8267035,571.092326 15.3887588,569.65259 15.3887588,568 C15.3887588,566.67292 15.0203003,565.471054 14.2833724,564.394366 C13.5464444,563.317678 12.5784603,562.541473 11.3793911,562.065728 L11.3793911,562.403756 C11.3793911,562.829423 11.2232646,563.198746 10.911007,563.511737 C10.5987494,563.824728 10.230291,563.981221 9.80562061,563.981221 L8.19437939,563.981221 L8.19437939,565.596244 C8.19437939,565.821597 8.11319363,566.009389 7.95081967,566.159624 C7.78844571,566.30986 7.60733902,566.384977 7.40749415,566.384977 L5.79625293,566.384977 L5.79625293,568 L10.5925059,568 C10.8173313,568 11.0046831,568.081376 11.1545667,568.244131 C11.3044504,568.406887 11.3793911,568.588418 11.3793911,568.788732 L11.3793911,571.192488 L12.2037471,571.192488 C12.5534756,571.192488 12.8657285,571.298903 13.1405152,571.511737 C13.4153019,571.724571 13.6026537,571.993739 13.7025761,572.319249 Z" id=""></path>
            <path d="M11.4776108,507 L16,507 C16.5522847,507 17,507.447715 17,508 L17,512.443777 C17,512.996062 16.5522847,513.443777 16,513.443777 C15.7376234,513.443777 15.4857574,513.340658 15.2987143,513.156657 L13.5265002,511.413268 L9.64547441,515.183748 C9.25638318,515.561756 8.63686128,515.560605 8.24917752,515.181153 L6.76155947,513.725122 C6.37284349,513.34466 5.75131787,513.34466 5.36260189,513.725122 L2.22808337,516.793084 C1.94525533,517.069907 1.49303601,517.069907 1.21020798,516.793084 L1.21020798,516.793084 C0.93509772,516.523816 0.930362212,516.082509 1.19963092,515.807399 C1.20311867,515.803836 1.20664456,515.80031 1.21020798,515.796822 L5.36260189,511.732598 C5.75131787,511.352136 6.37284349,511.352136 6.76155947,511.732598 L8.24992078,513.189356 C8.63730838,513.568518 9.25625543,513.569998 9.64545214,513.192693 L12.5086248,510.417005 L10.7763251,508.71288 C10.3826121,508.325571 10.3774211,507.692427 10.7647305,507.298714 C10.9527162,507.107621 11.2095521,507 11.4776108,507 Z" id=""></path>
            <path d="M2.80645161,455.222222 L15.1935484,455.222222 C15.3360735,455.222222 15.4516129,455.106148 15.4516129,454.962963 L15.4516129,450.814815 C15.4516129,450.67163 15.3360735,450.555556 15.1935484,450.555556 L2.80645161,450.555556 C2.66392652,450.555556 2.5483871,450.67163 2.5483871,450.814815 L2.5483871,454.962963 C2.5483871,455.106148 2.66392652,455.222222 2.80645161,455.222222 Z M16.6762092,456 C16.8803059,456.293957 17,456.651454 17,457.037037 L17,461.185185 C17,462.18748 16.1912241,463 15.1935484,463 L2.80645161,463 C1.80877594,463 1,462.18748 1,461.185185 L1,457.037037 C1,456.651454 1.11969414,456.293957 1.32379078,456 C1.11969414,455.706043 1,455.348546 1,454.962963 L1,450.814815 C1,449.81252 1.80877594,449 2.80645161,449 L15.1935484,449 C16.1912241,449 17,449.81252 17,450.814815 L17,454.962963 C17,455.348546 16.8803059,455.706043 16.6762092,456 Z M15.1935484,456.777778 L2.80645161,456.777778 C2.66392652,456.777778 2.5483871,456.893852 2.5483871,457.037037 L2.5483871,461.185185 C2.5483871,461.32837 2.66392652,461.444444 2.80645161,461.444444 L15.1935484,461.444444 C15.3360735,461.444444 15.4516129,461.32837 15.4516129,461.185185 L15.4516129,457.037037 C15.4516129,456.893852 15.3360735,456.777778 15.1935484,456.777778 Z M4.87096774,451.851852 C5.44106813,451.851852 5.90322581,452.316149 5.90322581,452.888889 C5.90322581,453.461629 5.44106813,453.925926 4.87096774,453.925926 C4.30086736,453.925926 3.83870968,453.461629 3.83870968,452.888889 C3.83870968,452.316149 4.30086736,451.851852 4.87096774,451.851852 Z M4.87096774,458.074074 C5.44106813,458.074074 5.90322581,458.538371 5.90322581,459.111111 C5.90322581,459.683851 5.44106813,460.148148 4.87096774,460.148148 C4.30086736,460.148148 3.83870968,459.683851 3.83870968,459.111111 C3.83870968,458.538371 4.30086736,458.074074 4.87096774,458.074074 Z" id="Combined-Shape"></path>
            <path d="M16.125,393.91155 L16.125,393.91155 C16.125,394.414985 15.7168853,394.823099 15.2134503,394.823099 L2.78654971,394.823099 C2.28311471,394.823099 1.875,394.414985 1.875,393.91155 L1.875,393.91155 C1.875,393.408115 2.28311471,393 2.78654971,393 L15.2134503,393 C15.7168853,393 16.125,393.408115 16.125,393.91155 Z M16.125,402.073099 L16.125,406.604167 C16.125,407.098922 15.7239218,407.5 15.2291667,407.5 L15.2291667,407.5 C14.7344116,407.5 14.3333333,407.098922 14.3333333,406.604167 L14.3333333,402.073099 L10.7916667,402.073099 L10.7916667,406.5 C10.7916667,407.052285 10.3439514,407.5 9.79166667,407.5 L2.875,407.5 C2.32271525,407.5 1.875,407.052285 1.875,406.5 L1.875,402.073099 L1.875,402.073099 C1.39175084,402.073099 1,401.681349 1,401.198099 L1,400.25 L1.71865075,396.524063 C1.80941659,396.053476 2.22129262,395.71345 2.70055322,395.71345 L15.2994468,395.71345 C15.7787074,395.71345 16.1905834,396.053476 16.2813493,396.524063 L17,400.25 L17,401.198099 C17,401.681349 16.6082492,402.073099 16.125,402.073099 Z M9,405.676901 L9,402.073099 L3.66666667,402.073099 L3.66666667,405.676901 L9,405.676901 Z" id=""></path>
            <path d="M11.9141914,340.520971 L15,340.520971 L15,343.558499 L14.2376238,343.558499 L14.2376238,345.041943 C14.2376238,345.465786 14.0863601,345.82487 13.7838284,346.119205 C13.4812966,346.413541 13.1122134,346.560706 12.6765677,346.560706 L10.3531353,346.560706 L10.3531353,348.856512 C10.9824014,349.162621 11.2970297,349.657097 11.2970297,350.339956 C11.2970297,350.787346 11.1276145,351.175863 10.7887789,351.505519 C10.4499433,351.835175 10.0445568,352 9.57260726,352 C9.10065771,352 8.70132177,351.835175 8.37458746,351.505519 C8.04785315,351.175863 7.88448845,350.787346 7.88448845,350.339956 C7.88448845,349.657097 8.18701568,349.162621 8.79207921,348.856512 L8.79207921,346.560706 L6.46864686,346.560706 C6.05720366,346.560706 5.70022153,346.413541 5.39768977,346.119205 C5.095158,345.82487 4.94389439,345.465786 4.94389439,345.041943 L4.94389439,343.487859 C4.31462832,343.18175 4,342.699047 4,342.039735 C4,341.592345 4.16941525,341.203828 4.50825083,340.874172 C4.8470864,340.544516 5.24642234,340.379691 5.70627063,340.379691 C6.16611891,340.379691 6.56545485,340.544516 6.90429043,340.874172 C7.24312601,341.203828 7.41254125,341.592345 7.41254125,342.039735 C7.41254125,342.699047 7.09791294,343.18175 6.46864686,343.487859 L6.46864686,345.041943 L8.79207921,345.041943 L8.79207921,339.037528 L7.26732673,339.037528 L9.59075908,336 L11.9141914,339.037528 L10.3531353,339.037528 L10.3531353,345.041943 L12.6765677,345.041943 L12.6765677,343.558499 L11.9141914,343.558499 L11.9141914,340.520971 Z" id=""></path>
            <path d="M8.98126464,284.209635 L16,284.209635 C16.5522847,284.209635 17,284.657351 17,285.209635 L17,294.5 C17,295.052285 16.5522847,295.5 16,295.5 L2,295.5 C1.44771525,295.5 1,295.052285 1,294.5 L1,282 C1,281.447715 1.44771525,281 2,281 L7.98126464,281 C8.53354939,281 8.98126464,281.447715 8.98126464,282 L8.98126464,284.209635 Z M4.18501171,293.876302 L4.18501171,292.290365 L2.61124122,292.290365 L2.61124122,293.876302 L4.18501171,293.876302 Z M4.18501171,290.666667 L4.18501171,289.042969 L2.61124122,289.042969 L2.61124122,290.666667 L4.18501171,290.666667 Z M4.18501171,287.457031 L4.18501171,285.833333 L2.61124122,285.833333 L2.61124122,287.457031 L4.18501171,287.457031 Z M4.18501171,284.209635 L4.18501171,282.623698 L2.61124122,282.623698 L2.61124122,284.209635 L4.18501171,284.209635 Z M7.40749415,293.876302 L7.40749415,292.290365 L5.79625293,292.290365 L5.79625293,293.876302 L7.40749415,293.876302 Z M7.40749415,290.666667 L7.40749415,289.042969 L5.79625293,289.042969 L5.79625293,290.666667 L7.40749415,290.666667 Z M7.40749415,287.457031 L7.40749415,285.833333 L5.79625293,285.833333 L5.79625293,287.457031 L7.40749415,287.457031 Z M7.40749415,284.209635 L7.40749415,282.623698 L5.79625293,282.623698 L5.79625293,284.209635 L7.40749415,284.209635 Z M15.3887588,293.876302 L15.3887588,285.833333 L8.98126464,285.833333 L8.98126464,287.457031 L10.5925059,287.457031 L10.5925059,289.042969 L8.98126464,289.042969 L8.98126464,290.666667 L10.5925059,290.666667 L10.5925059,292.290365 L8.98126464,292.290365 L8.98126464,293.876302 L15.3887588,293.876302 Z M13.7775176,287.457031 L13.7775176,289.042969 L12.2037471,289.042969 L12.2037471,287.457031 L13.7775176,287.457031 Z M13.7775176,290.666667 L13.7775176,292.290365 L12.2037471,292.290365 L12.2037471,290.666667 L13.7775176,290.666667 Z" id=""></path>
            <path d="M15.3538249,230.782497 C16.11605,231.045403 16.664124,231.355535 16.9980469,231.712891 C17.666019,232.427738 18,233.277339 18,234.261719 C18,235.292974 17.6308631,236.177731 16.8925781,236.916016 C16.1542932,237.654301 15.2695364,238.023438 14.2382812,238.023438 L4.5,238.023438 C3.25780629,238.023438 2.19727002,237.583989 1.31835938,236.705078 C0.43944873,235.826167 0,234.765631 0,233.523438 C0,232.351557 0.386714883,231.343754 1.16015625,230.5 C1.93359762,229.656246 2.88280687,229.175782 4.0078125,229.058594 C4.50000246,228.121089 5.1914018,227.376956 6.08203125,226.826172 C6.9726607,226.275388 7.94530723,226 9,226 C10.3593818,226 11.5546823,226.433589 12.5859375,227.300781 C13.1450339,227.77093 13.6757111,228.571747 14.1779691,229.70323 L14.1779597,229.703235 C14.4031645,230.210574 14.8290846,230.601503 15.3538249,230.782497 Z M14.2382812,236.511719 C14.8710969,236.511719 15.4042947,236.289065 15.8378906,235.84375 C16.2714865,235.398435 16.4882812,234.871097 16.4882812,234.261719 C16.4882812,233.652341 16.2714865,233.125002 15.8378906,232.679688 C15.4042947,232.234373 14.8710969,232.011719 14.2382812,232.011719 L13.5,232.011719 C13.2864211,232.011719 13.1132812,231.838579 13.1132812,231.625 C13.1132812,230.499994 12.7089884,229.533207 11.9003906,228.724609 C11.0917928,227.916012 10.1250056,227.511719 9,227.511719 C7.6406182,227.511719 6.53906672,228.062494 5.6953125,229.164062 C6.6562548,229.445314 7.44726252,229.984371 8.06835938,230.78125 C8.39598688,231.201602 8.65880481,231.861621 8.85681317,232.761307 L8.85676876,232.761317 C8.93123385,233.099662 8.71731678,233.434311 8.3789716,233.508776 C8.33468991,233.518522 8.28948209,233.523438 8.24414062,233.523438 L8.24414062,233.523438 C7.81704845,233.523438 7.44260659,233.238054 7.32937756,232.826245 C7.14550277,232.157477 6.90549996,231.675031 6.609375,231.378906 C6.02343457,230.792966 5.3203166,230.5 4.5,230.5 C3.6796834,230.5 2.97656543,230.792966 2.390625,231.378906 C1.80468457,231.964847 1.51171875,232.673824 1.51171875,233.505859 C1.51171875,234.337895 1.80468457,235.046872 2.390625,235.632812 C2.97656543,236.218753 3.6796834,236.511719 4.5,236.511719 L14.2382812,236.511719 Z" id=""></path>
            <path d="M9.77169905,168.322753 L14.7716991,170.413939 C15.5156791,170.725099 16,171.452634 16,172.259062 L16,175.285106 C16,177.304975 15.3316039,179.148928 13.9947917,180.817021 C12.6579794,182.485115 10.9930655,183.546097 9,184 C7.00693448,183.546097 5.34202057,182.485115 4.00520833,180.817021 C2.66839609,179.148928 2,177.304975 2,175.285106 L2,172.259062 C2,171.452634 2.48432088,170.725099 3.22830095,170.413939 L8.22830095,168.322753 C8.72204496,168.116251 9.27795504,168.116251 9.77169905,168.322753 Z M9,176 L9,169.6 L3.56770833,171.846809 L3.56770833,176 L9,176 L9,182.502128 C10.4340349,182.07092 11.6493006,181.253907 12.6458333,180.051064 C13.6423661,178.848221 14.2378462,177.49788 14.4322917,176 L9,176 Z" id=""></path>
            <path d="M9,115.5 L9,116.449219 C9,116.589844 8.97656273,116.718749 8.9296875,116.835938 L7.20703125,120.808594 C7.01953031,121.277346 6.67968996,121.511719 6.1875,121.511719 L1.125,121.511719 C0.820310977,121.511719 0.556641738,121.400392 0.333984375,121.177734 C0.111327012,120.955077 0,120.691408 0,120.386719 L0,115.5 C0,115.195311 0.105467695,114.925782 0.31640625,114.691406 L4.04296875,111 L4.640625,111.597656 C4.80468832,111.76172 4.88671875,111.960936 4.88671875,112.195312 L4.8515625,112.371094 L4.359375,114.761719 L8.26171875,114.761719 C8.44921969,114.761719 8.61913986,114.832031 8.77148438,114.972656 C8.92382889,115.113282 9,115.289061 9,115.5 Z M16.875,118.488281 C17.179689,118.488281 17.4433583,118.599608 17.6660156,118.822266 C17.888673,119.044923 18,119.308592 18,119.613281 L18,124.5 C18,124.804689 17.8945323,125.074218 17.6835938,125.308594 L13.9570312,129 L13.359375,128.402344 C13.1953117,128.23828 13.1132812,128.039064 13.1132812,127.804688 L13.1484375,127.628906 L13.640625,125.238281 L9.73828125,125.238281 C9.55078031,125.238281 9.38086014,125.167969 9.22851562,125.027344 C9.07617111,124.886718 9,124.710939 9,124.5 L9,123.550781 C9,123.410156 9.02343727,123.281251 9.0703125,123.164062 L10.7929688,119.191406 C10.9804697,118.722654 11.32031,118.488281 11.8125,118.488281 L16.875,118.488281 Z" id=""></path>
            <path d="M12.5784543,57 C13.8274848,57 14.8766546,57.4202857 15.7259953,58.2608696 C16.575336,59.1014535 17,60.1274449 17,61.3388747 C17,61.932228 16.8750988,62.5317532 16.6252927,63.137468 C16.3754867,63.7431829 16.1007041,64.2809013 15.8009368,64.7506394 C15.5011695,65.2203775 14.9953197,65.8260832 14.2833724,66.5677749 C13.571425,67.3094666 12.9718994,67.9089917 12.4847775,68.3663683 C11.9976556,68.8237448 11.2170233,69.5221607 10.1428571,70.4616368 L8.98126464,71.5 L7.81967213,70.4987212 C6.77048656,69.534522 5.9960993,68.8237448 5.49648712,68.3663683 C4.99687494,67.9089917 4.39110426,67.3094666 3.67915691,66.5677749 C2.96720956,65.8260832 2.46135981,65.2203775 2.16159251,64.7506394 C1.8618252,64.2809013 1.59328768,63.7431829 1.3559719,63.137468 C1.11865611,62.5317532 1,61.932228 1,61.3388747 C1,60.1274449 1.42466398,59.1014535 2.27400468,58.2608696 C3.12334539,57.4202857 4.16002511,57 5.38407494,57 C6.83295026,57 8.0320015,57.5562604 8.98126464,58.668798 C9.93052778,57.5562604 11.129579,57 12.5784543,57 Z M9.05620609,69.3120205 C10.2802559,68.224206 11.1732993,67.414538 11.735363,66.8829923 C12.2974267,66.3514466 12.9156875,65.7148375 13.5901639,64.9731458 C14.2646404,64.2314541 14.7330198,63.5824836 14.9953162,63.0262148 C15.2576126,62.4699461 15.3887588,61.907505 15.3887588,61.3388747 C15.3887588,60.5477369 15.1202213,59.8925857 14.5831382,59.3734015 C14.0460551,58.8542174 13.3778338,58.5946292 12.5784543,58.5946292 C11.9789197,58.5946292 11.4106194,58.767688 10.8735363,59.1138107 C10.5987377,59.2909045 10.3104524,59.5942037 10.0086804,60.0237084 L10.008707,60.0237271 C9.82146034,60.2902307 9.51615855,60.4488491 9.19045096,60.4488491 L8.78779599,60.4488612 C8.45500192,60.4488612 8.14401292,60.2833066 7.95819177,60.0072226 C7.67497576,59.586434 7.39773307,59.2886301 7.1264637,59.1138107 C6.58938061,58.767688 6.00859016,58.5946292 5.38407494,58.5946292 C4.58469546,58.5946292 3.92271925,58.8542174 3.39812646,59.3734015 C2.87353368,59.8925857 2.61124122,60.5477369 2.61124122,61.3388747 C2.61124122,61.907505 2.73614239,62.4699461 2.98594848,63.0262148 C3.23575457,63.5824836 3.70413396,64.2314541 4.3911007,64.9731458 C5.07806745,65.7148375 5.7025733,66.3514466 6.264637,66.8829923 C6.8267007,67.414538 7.70725396,68.224206 8.90632319,69.3120205 L8.98126464,69.3861893" id=""></path>
            <path d="M9,7.41552511 C10.9687598,5.58903196 13.3020698,4.67579909 16,4.67579909 L16,13.2237443 C13.3263755,13.2237443 10.9930655,14.1491536 9,16 C7.03124016,14.1491536 4.69793016,13.2237443 2,13.2237443 L2,4.67579909 C4.69793016,4.67579909 7.03124016,5.58903196 9,7.41552511 Z M10.640625,3.98173516 C10.2031228,4.44444676 9.65625328,4.67579909 9,4.67579909 C8.34374672,4.67579909 7.79080086,4.44444676 7.34114583,3.98173516 C6.89149081,3.51902356 6.66666667,2.96499562 6.66666667,2.3196347 C6.66666667,1.67427379 6.89149081,1.12633406 7.34114583,0.675799087 C7.79080086,0.22526411 8.34374672,0 9,0 C9.65625328,0 10.2091991,0.22526411 10.6588542,0.675799087 C11.1085092,1.12633406 11.3333333,1.67427379 11.3333333,2.3196347 C11.3333333,2.96499562 11.1024329,3.51902356 10.640625,3.98173516 Z" id=""></path>
        </g>
    </g>
</svg>