<?xml version="1.0" encoding="UTF-8"?>
<svg width="50px" height="1480px" viewBox="0 0 50 1480" version="1.1" xmlns="http://www.w3.org/2000/svg" xmlns:xlink="http://www.w3.org/1999/xlink">
    <!-- Generator: Sketch 52.5 (67469) - http://www.bohemiancoding.com/sketch -->
    <title>Group 3</title>
    <desc>Created with Sketch.</desc>
    <g id="03-Icons" stroke="none" stroke-width="1" fill="none" fill-rule="evenodd">
        <g id="Group-3" transform="translate(1.000000, 0.000000)">
            <polyline id="Path-3" stroke="#412BBC" stroke-width="2" stroke-linecap="round" points="15 1465.47564 20.6743033 1471 33 1459"></polyline>
            <rect id="Rectangle" stroke="#412BBC" stroke-width="2" x="10" y="1433" width="28" height="46" rx="4"></rect>
            <path d="M38,1440 L43,1440 C45.209139,1440 47,1441.79086 47,1444 L47,1468 C47,1470.20914 45.209139,1472 43,1472 L38,1472 L38,1440 Z" id="Rectangle" stroke="#412BBC" stroke-width="2"></path>
            <path d="M5,1440 L10,1440 L10,1472 L5,1472 C2.790861,1472 1,1470.20914 1,1468 L1,1444 C1,1441.79086 2.790861,1440 5,1440 Z" id="Rectangle" stroke="#412BBC" stroke-width="2"></path>
            <rect id="Rectangle" fill="#412BBC" x="15" y="1452" width="18" height="2" rx="1"></rect>
            <rect id="Rectangle" fill="#412BBC" x="15" y="1446" width="18" height="2" rx="1"></rect>
            <rect id="Rectangle" fill="#412BBC" x="15" y="1440" width="18" height="2" rx="1"></rect>
            <rect id="Rectangle" stroke="#412BBC" stroke-width="2" x="1" y="1361" width="10" height="10" rx="2"></rect>
            <rect id="Rectangle" stroke="#412BBC" stroke-width="2" x="1" y="1379" width="10" height="10" rx="2"></rect>
            <rect id="Rectangle" stroke="#412BBC" stroke-width="2" x="1" y="1397" width="10" height="10" rx="2"></rect>
            <rect id="Rectangle" fill="#412BBC" x="16" y="1383" width="32" height="2" rx="1"></rect>
            <rect id="Rectangle" fill="#412BBC" x="16" y="1365" width="32" height="2" rx="1"></rect>
            <rect id="Rectangle" fill="#412BBC" x="16" y="1401" width="8" height="2" rx="1"></rect>
            <polyline id="Path-3" stroke="#412BBC" stroke-width="2" stroke-linecap="round" points="29 1401.47564 34.6743033 1407 47 1395"></polyline>
            <path d="M47.8497932,1309.33433 C48.0534582,1311.15581 48.0501324,1312.9912 47.8388158,1314.79465 C47.6960645,1315.99685 46.619394,1316.89855 45.4737744,1316.80396 L45.2151737,1316.79693 C43.5842099,1316.79693 42.0579605,1317.80827 41.4319662,1319.30182 C40.7651949,1320.89056 41.1820754,1322.74525 42.4694766,1323.91108 C43.3644274,1324.72088 43.4717185,1326.08808 42.7157266,1327.02665 C41.5733004,1328.44951 40.2673817,1329.74074 38.8263433,1330.87071 C37.8854366,1331.59757 36.5487814,1331.48748 35.7396261,1330.60737 C34.6482937,1329.4085 32.6576006,1328.9527 31.1617262,1329.56367 C29.59196,1330.20638 28.5732301,1331.79376 28.6353601,1333.50949 C28.6752925,1334.70133 27.7931652,1335.72324 26.6077714,1335.85404 C25.7321312,1335.95145 24.8535033,1336 23.9722929,1336 C23.0462964,1336 22.1234192,1335.9465 21.208202,1335.83974 C20.0088675,1335.70163 19.1244868,1334.65014 19.1954219,1333.44614 C19.2937288,1331.71245 18.2887016,1330.09945 16.6949958,1329.4328 C15.1973304,1328.80421 13.185772,1329.25899 12.0885646,1330.47257 C11.2764515,1331.36743 9.90995416,1331.4752 8.97046989,1330.7182 C7.56415475,1329.58637 6.28504528,1328.29284 5.17375476,1326.87742 C4.4350937,1325.94124 4.54456939,1324.59459 5.42293345,1323.78774 C6.68815325,1322.62798 7.10414983,1320.78854 6.45978194,1319.21758 C5.81809062,1317.65607 4.28482066,1316.6443 2.65221998,1316.68569 C1.47837866,1316.68569 0.280842272,1315.84059 0.150172395,1314.66582 C-0.0533726262,1312.84541 -0.0501347699,1311.00851 0.161064027,1309.20465 C0.304550541,1308.01184 1.28182771,1307.15587 2.48243166,1307.19499 C4.33942642,1307.19499 5.93216622,1306.2058 6.56489841,1304.69923 C7.2322354,1303.10804 6.81668591,1301.25385 5.52802219,1300.08688 C4.63724146,1299.2764 4.52884377,1297.91222 5.28338017,1296.97371 C6.41882022,1295.55681 7.72691968,1294.26387 9.1699695,1293.13172 C10.1092,1292.3997 11.4554005,1292.51146 12.2602862,1293.39371 C13.3475071,1294.58943 15.3467835,1295.04529 16.8351052,1294.43738 C18.406391,1293.79379 19.4245506,1292.20683 19.3641693,1290.489 C19.3241952,1289.29805 20.2069596,1288.27637 21.3922227,1288.14555 C23.1852692,1287.94663 24.9938928,1287.95183 26.7926081,1288.15986 C27.9934839,1288.29972 28.875666,1289.3495 28.8041036,1290.55318 C28.7058457,1292.28503 29.7104304,1293.89956 31.2976286,1294.56721 C32.8025492,1295.19513 34.8152132,1294.74029 35.9069361,1293.53125 C36.7155555,1292.63588 38.084493,1292.52726 39.022308,1293.27982 C40.422285,1294.40128 41.7019446,1295.69336 42.8259437,1297.12066 C43.5653492,1298.05779 43.4570833,1299.40682 42.5770195,1300.21131 C41.3140593,1301.3698 40.8976967,1303.21121 41.5401078,1304.78276 C42.1696426,1306.31885 43.6729066,1307.3136 45.3774311,1307.3136 C46.5422265,1307.3136 47.7183843,1308.16621 47.8497932,1309.33433 Z M45.3774311,1309.3136 C42.8662217,1309.3136 40.6287426,1307.83301 39.689151,1305.54036 C38.7290399,1303.19161 39.3465537,1300.46059 41.226341,1298.7363 C41.3332626,1298.63856 41.3464409,1298.47435 41.2552491,1298.35877 C40.2246768,1297.05011 39.0525983,1295.86665 37.7712465,1294.84022 C37.658385,1294.74965 37.489361,1294.76306 37.3912782,1294.87167 C35.7321848,1296.70905 32.8163529,1297.368 30.5248226,1296.41187 C28.1538001,1295.41451 26.6611786,1293.01563 26.8074717,1290.43719 C26.8161877,1290.29057 26.7095771,1290.16371 26.5620332,1290.14653 C24.913334,1289.95584 23.2557693,1289.95108 21.6121898,1290.13342 C21.4663678,1290.14951 21.3581064,1290.27481 21.3629892,1290.42033 C21.452651,1292.97112 19.9416735,1295.32622 17.5922651,1296.28852 C15.3241917,1297.21492 12.431992,1296.55546 10.7816544,1294.74042 C10.6828852,1294.63216 10.5160365,1294.61831 10.4019585,1294.70721 C9.08184369,1295.74292 7.88326216,1296.92762 6.84308892,1298.22563 C6.75083095,1298.34039 6.76411717,1298.50759 6.87224368,1298.60598 C8.78706782,1300.33998 9.40519236,1303.09806 8.40906756,1305.4732 C7.45445341,1307.7462 5.12168372,1309.19499 2.45029698,1309.19447 C2.26244349,1309.18843 2.1674224,1309.27166 2.14712245,1309.44037 C1.95404936,1311.08946 1.95108045,1312.77377 2.13785003,1314.44415 C2.1435321,1314.49524 2.41340293,1314.68569 2.62667776,1314.68601 C5.06756994,1314.62365 7.35433315,1316.13263 8.30992297,1318.45798 C9.27339984,1320.80694 8.65590371,1323.53736 6.7751414,1325.26135 C6.6674308,1325.36029 6.65406106,1325.52475 6.74535411,1325.64046 C7.76418146,1326.93811 8.93618384,1328.12332 10.224879,1329.16049 C10.3395834,1329.25291 10.5065708,1329.23975 10.6062736,1329.12989 C12.269984,1327.28971 15.1860111,1326.63044 17.4679023,1327.58818 C19.8439286,1328.58208 21.3384368,1330.98067 21.1920872,1333.56156 C21.1834713,1333.70781 21.2913747,1333.8361 21.4384643,1333.85304 C22.2781259,1333.95098 23.1236313,1334 23.9722929,1334 C24.7797518,1334 25.5845587,1333.95553 26.3875365,1333.8662 C26.5333882,1333.85011 26.6414557,1333.72491 26.636576,1333.57916 C26.5442702,1331.03027 28.0565194,1328.67389 30.4047111,1327.71247 C32.6807106,1326.78287 35.5636064,1327.44296 37.2152707,1329.25739 C37.3168433,1329.36786 37.4825742,1329.38151 37.5979358,1329.29243 C38.9127888,1328.26138 40.1095392,1327.07808 41.1571815,1325.77328 C41.2493973,1325.65879 41.236348,1325.49251 41.1272837,1325.39382 C39.212002,1323.6594 38.5919318,1320.90073 39.5876128,1318.52828 C40.5254722,1316.29066 42.7797126,1314.79693 45.2410368,1314.79727 L45.5806043,1314.80758 C45.6990034,1314.8172 45.8356803,1314.70273 45.8525868,1314.56036 C46.0459359,1312.91024 46.0489976,1311.22761 45.8622919,1309.55757 C45.8547252,1309.49813 45.5997527,1309.3136 45.3774311,1309.3136 Z M24.036477,1318.72045 C27.7147227,1318.72045 30.7082732,1315.72693 30.7082732,1312.04868 C30.7082732,1308.37053 27.7146602,1305.3769 24.036477,1305.3769 C20.3581456,1305.3769 17.3645096,1308.37051 17.3645096,1312.04868 C17.3645096,1315.72695 20.3580831,1318.72045 24.036477,1318.72045 Z M24.036477,1320.72045 C19.2535247,1320.72045 15.3645096,1316.83154 15.3645096,1312.04868 C15.3645096,1307.26593 19.2535803,1303.3769 24.036477,1303.3769 C28.8192324,1303.3769 32.7082732,1307.26596 32.7082732,1312.04868 C32.7082732,1316.83151 28.8192881,1320.72045 24.036477,1320.72045 Z" id="Shape" fill="#412BBC" fill-rule="nonzero"></path>
            <path d="M24,1253 C32.4683662,1253 40.1350328,1248.66667 47,1240 C40.1350328,1231.33333 32.4683662,1227 24,1227 C15.5316338,1227 7.86496717,1231.33333 1,1240 C7.86496717,1248.66667 15.5316338,1253 24,1253 Z" id="Oval" stroke="#412BBC" stroke-width="2"></path>
            <circle id="Oval" stroke="#412BBC" stroke-width="2" cx="24" cy="1240" r="13"></circle>
            <path d="M26.7731204,1245.13638 C28.1533391,1243.85781 29.0172767,1242.0298 29.0172767,1240 C29.0172767,1236.13401 25.8832699,1233 22.0172767,1233 C20.3337081,1233 18.7889565,1233.59435 17.5813964,1234.58466 C17.3776841,1234.75173 17.1835678,1234.93006 17,1235.11871" id="Oval" stroke="#412BBC" stroke-width="2" stroke-linecap="round" transform="translate(23.008638, 1239.068190) scale(-1, 1) translate(-23.008638, -1239.068190) "></path>
            <path d="M7.4175228,1152.14299 L23.9996852,1145 L40.582433,1152.143 C42.0495539,1152.77496 43,1154.21924 43,1155.81668 L43,1167.46029 C43,1174.59351 39.4350962,1181.25481 33.5,1185.21176 L25.1622084,1190.7706 C24.4641054,1191.23603 23.5497108,1191.21625 22.8723901,1190.72106 L14.5,1184.60006 C8.52932059,1180.23494 5,1173.28273 5,1165.88656 L5,1155.81665 C5,1154.21922 5.95042556,1152.77496 7.4175228,1152.14299 Z" id="Rectangle" stroke="#412BBC" stroke-width="2"></path>
            <polyline id="Path-3" stroke="#412BBC" stroke-width="2" stroke-linecap="round" points="16 1168.39636 21.0438251 1173 32 1163"></polyline>
            <path d="M2,1094.58942 L2,1116.99668 C2,1117.54957 2.44771525,1117.99778 3,1117.99778 L16.3,1117.99778 C16.8522848,1117.99778 17.3,1117.54957 17.3,1116.99668 L17.3,1109.38794 C17.3,1107.72925 18.6431458,1106.38462 20.3,1106.38462 L27.7,1106.38462 C29.3568542,1106.38462 30.7,1107.72925 30.7,1109.38794 L30.7,1116.99668 C30.7,1117.54957 31.1477153,1117.99778 31.7,1117.99778 L45,1117.99778 C45.5522848,1117.99778 46,1117.54957 46,1116.99668 L46,1094.58942 C46,1094.30864 45.8822187,1094.04077 45.675383,1093.85113 L24.675383,1074.26504 C24.2931617,1073.91461 23.7068383,1073.91461 23.324617,1074.26504 L2.32461698,1093.85113 C2.11778131,1094.04077 2,1094.30864 2,1094.58942 Z M0.973850946,1092.37456 L21.9738509,1072.78847 C23.120515,1071.73718 24.879485,1071.73718 26.0261491,1072.78847 L47.0261491,1092.37456 C47.6466561,1092.94346 48,1093.74708 48,1094.58942 L48,1116.99668 C48,1118.65537 46.6568542,1120 45,1120 L31.7,1120 C30.0431458,1120 28.7,1118.65537 28.7,1116.99668 L28.7,1109.38794 C28.7,1108.83504 28.2522847,1108.38683 27.7,1108.38683 L20.3,1108.38683 C19.7477153,1108.38683 19.3,1108.83504 19.3,1109.38794 L19.3,1116.99668 C19.3,1118.65537 17.9568542,1120 16.3,1120 L3,1120 C1.34314575,1120 1.13834928e-10,1118.65537 -9.9475983e-14,1116.99668 L1.20904531e-09,1094.58942 C1.25328019e-09,1093.74708 0.353343919,1092.94346 0.973850946,1092.37456 Z" id="Rectangle" fill="#ffffff"></path>
            <path d="M11,1014.08889 C11.1084198,1008.49909 13.8298124,1001 24.3652568,1001 C24.3652568,1001 24.3652568,1001 24.3652568,1001 L24.3652568,1001 C30.8525855,1001 36.1116045,1006.25902 36.1116045,1012.74635 C36.1116045,1016.07978 34.6953013,1019.25624 32.2156691,1021.48407 C26.3204584,1026.78055 23.4170363,1032.61921 23.5053665,1039" id="Path-21" stroke="#412BBC" stroke-width="2" stroke-linecap="round" stroke-linejoin="round"></path>
            <rect id="Rectangle" fill="#412BBC" x="22" y="1044" width="4" height="4" rx="2"></rect>
            <path d="M12.2351808,931 L35.7648192,931 C37.1538621,931 38.4434587,931.72062 39.1714525,932.90361 L44.5834595,941.698122 C45.4392897,943.088846 45.3638238,944.860162 44.3928076,946.173054 L24.5515767,973 L3.70272447,946.189603 C2.67863834,944.872689 2.57939106,943.05849 3.45371002,941.637721 L8.82854751,932.90361 C9.55654129,931.72062 10.8461379,931 12.2351808,931 Z" id="Rectangle" stroke="#412BBC" stroke-width="2" stroke-linecap="round" stroke-linejoin="round"></path>
            <polygon id="Rectangle" stroke="#412BBC" stroke-width="2" stroke-linecap="round" stroke-linejoin="round" points="20 931 28 931 36 944 24.5515767 973 12 944"></polygon>
            <path d="M3,944 L45,944" id="Line" stroke="#412BBC" stroke-width="2" stroke-linecap="round" stroke-linejoin="round"></path>
            <path d="M3.00343911,877 L44.9971094,877 C46.1016789,877 46.9971094,877.895431 46.9971094,879 C46.9971094,879.205336 46.9654885,879.409447 46.9033583,879.605157 L40.8048565,898.815472 C40.0138197,901.307242 37.7004282,903 35.08611,903 L12.9144385,903 C10.3001203,903 7.98672887,901.307242 7.195692,898.815472 L1.09719026,879.605157 C0.76297112,878.552365 1.34548965,877.42797 2.39828182,877.093751 C2.59399228,877.031621 2.79810342,877 3.00343911,877 Z" id="Rectangle" stroke="#412BBC" stroke-width="2"></path>
            <path d="M24,857 L24,857 C25.6568542,857 27,858.343146 27,860 L27,877 L21,877 L21,860 C21,858.343146 22.3431458,857 24,857 Z" id="Rectangle" stroke="#412BBC" stroke-width="2"></path>
            <rect id="Rectangle" fill="#412BBC" x="17" y="884" width="2" height="12" rx="1"></rect>
            <rect id="Rectangle" fill="#412BBC" x="11" y="884" width="2" height="12" rx="1"></rect>
            <rect id="Rectangle" fill="#412BBC" x="23" y="884" width="2" height="12" rx="1"></rect>
            <rect id="Rectangle" fill="#412BBC" x="29" y="884" width="2" height="12" rx="1"></rect>
            <rect id="Rectangle" fill="#412BBC" x="35" y="884" width="2" height="12" rx="1"></rect>
            <circle id="Oval" stroke="#412BBC" stroke-width="2" cx="6" cy="826" r="5"></circle>
            <circle id="Oval" stroke="#412BBC" stroke-width="2" cx="14" cy="802" r="5"></circle>
            <path d="M8,821 L12,807" id="Line" stroke="#412BBC" stroke-width="2" stroke-linecap="square"></path>
            <path d="M36,809 L40,795" id="Line" stroke="#412BBC" stroke-width="2" stroke-linecap="square"></path>
            <path d="M29.3532715,811.72583 L18.4260254,804.475098" id="Line" stroke="#412BBC" stroke-width="2" stroke-linecap="square"></path>
            <circle id="Oval" stroke="#412BBC" stroke-width="2" cx="34" cy="814" r="5"></circle>
            <circle id="Oval" stroke="#412BBC" stroke-width="2" cx="42" cy="790" r="5"></circle>
            <path d="M32.9998782,713.999982 L32.3493139,713.999982 C32.0779064,713.999982 31.8181566,714.110301 31.6296996,714.30561 L30.9759972,714.983082 C30.4106262,715.569011 29.631377,715.899966 28.8171546,715.899966 L19.1827016,715.899966 C18.3684792,715.899966 17.58923,715.569011 17.023859,714.983082 L16.3701566,714.30561 C16.1816996,714.110301 15.9219498,713.999982 15.6505424,713.999982 L13.7499771,713.999982 C12.7834842,713.999982 11.9999869,714.783478 11.9999869,715.749968 L11.9999869,755.000044 C11.9999869,756.656884 13.3431239,758.000018 14.9999673,758.000018 L33.0000327,758.000018 C34.6568761,758.000018 36.0000131,756.656884 36.0000131,755.000044 L36.0000131,715.75004 C36.0000131,714.78351 35.2164836,713.999982 34.249951,713.999982 L32.9998782,713.999982 Z M15.8716646,712.008153 C15.9136699,712.002773 15.9564903,712 15.9999585,712 L32.3493139,712 L34.249951,712 C36.3210459,712 38,713.67895 38,715.75004 L38,755.000044 C38,757.761444 35.7614384,760 33.0000327,760 L14.9999673,760 C12.2385616,760 10,757.761444 10,755.000044 L10,715.749968 C10,713.678918 11.6789219,712 13.7499771,712 L15.6505424,712 C15.7245838,712 15.7983361,712.002737 15.8716646,712.008153 Z" id="Combined-Shape" fill="#ffffff"></path>
            <path d="M11,670 L7,674 L7,670 L3,670 C1.8954305,670 1,669.104569 1,668 L1,654 C1,652.895431 1.8954305,652 3,652 L23,652 C24.1045695,652 25,652.895431 25,654 L25,668 C25,669.104569 24.1045695,670 23,670 L11,670 Z" id="Combined-Shape" stroke="#FFFFFF" stroke-width="2" stroke-linecap="round" stroke-linejoin="round"></path>
            <path d="M24.9960938,662.000018 L37.0000185,662 C38.104588,661.999999 39.0000196,662.895428 39.0000208,663.999998 C39.0000208,663.999999 39.0000208,664.000001 39.0000208,664.000002 L39,678.000018 C38.9999989,679.104587 38.1045687,680.000016 37,680.000016 L35,680.000018 L35,684.000018 L31.0578613,680.000018 L17,680.000018 C15.8954305,680.000018 15,679.104588 15,678.000018 L15,670.000018" id="Combined-Shape" stroke="#FFFFFF" stroke-width="2" stroke-linecap="round" stroke-linejoin="round"></path>
            <path d="M24.7355916,620.20614 C34.9118639,609.156072 40,600.754025 40,595 C40,586.163444 32.836556,579 24,579 C15.163444,579 8,586.163444 8,595 C8,600.754027 13.0881386,609.156076 23.2644159,620.206148 L23.2644248,620.20614 C23.6385516,620.612391 24.2711731,620.638434 24.6774246,620.264307 C24.6976032,620.245724 24.7170086,620.226318 24.7355916,620.20614 Z" id="Oval"></path>
            <path d="M24.7355916,620.20614 C34.9118639,609.156072 40,600.754025 40,595 C40,586.163444 32.836556,579 24,579 C15.163444,579 8,586.163444 8,595 C8,600.754027 13.0881386,609.156076 23.2644159,620.206148 L23.2644248,620.20614 C23.6385516,620.612391 24.2711731,620.638434 24.6774246,620.264307 C24.6976032,620.245724 24.7170086,620.226318 24.7355916,620.20614 Z" id="Oval" stroke="#412BBC" stroke-width="2"></path>
            <circle id="Oval" stroke="#412BBC" stroke-width="2" cx="24" cy="595" r="6"></circle>
            <rect id="Rectangle" stroke="#412BBC" fill="#D8D8D8" x="0.5" y="550.5" width="47" height="1" rx="0.5"></rect>
            <path d="M36.2351643,545.100223 C37.5543374,541.551451 37.7635659,538.603722 36.8628498,536.257037 C35.9621337,533.910351 34.0465249,532.433469 31.1160236,531.826389 C29.5850991,535.235272 29.3639077,538.315991 30.4524494,541.068546 C31.5409911,543.821101 33.4685627,545.164993 36.2351643,545.100223 Z" id="Path-17" stroke="#412BBC" stroke-width="2" transform="translate(33.592483, 538.464423) scale(-1, 1) rotate(-17.000000) translate(-33.592483, -538.464423) "></path>
            <circle id="Oval" stroke="#412BBC" stroke-width="2" cx="24" cy="517" r="12"></circle>
            <path d="M24,550.77632 C29.8020833,545.676385 31.0492771,538.084278 27.7415813,528" id="Path-2" stroke="#412BBC" stroke-width="2"></path>
            <path d="M27.1533059,546.273665 C28.8179423,542.457587 29.0819633,539.287825 27.9453688,536.764379 C26.8087744,534.240934 24.3915087,532.652807 20.6935717,532 C18.7617308,535.665652 18.4826141,538.978422 19.8562216,541.938309 C21.229829,544.898196 23.6621905,546.343314 27.1533059,546.273665 Z" id="Path-17" stroke="#412BBC" stroke-width="2"></path>
            <path d="M28.5412698,519.598942 C28.5412698,520.501945 28.2280455,521.263842 27.6015873,521.884656 C26.9751291,522.50547 26.1313986,522.894885 25.0703704,523.05291 L25.0703704,524.119577 C25.0703704,524.37919 24.9913588,524.590828 24.8333333,524.754497 C24.6753079,524.918167 24.4664916,525 24.2068783,525 C23.947265,525 23.7384488,524.918167 23.5804233,524.754497 C23.4223978,524.590828 23.3433862,524.37919 23.3433862,524.119577 L23.3433862,523.086772 C22.6999968,523.030335 22.073548,522.894886 21.4640212,522.680423 C20.8544943,522.46596 20.3296318,522.183776 19.889418,521.833862 C19.74268,521.732275 19.6410938,521.619401 19.5846561,521.495238 C19.5282184,521.371075 19.5,521.218696 19.5,521.038095 C19.5,520.801057 19.570546,520.592241 19.7116402,520.41164 C19.8527344,520.23104 20.0135793,520.140741 20.1941799,520.140741 C20.3070552,520.140741 20.4114634,520.160494 20.5074074,520.2 C20.6033514,520.239506 20.7303343,520.304409 20.8883598,520.394709 C21.4075864,520.733335 21.9183396,520.981657 22.4206349,521.139683 C22.9229302,521.297708 23.4506145,521.37672 24.0037037,521.37672 C24.7599685,521.37672 25.3440897,521.229984 25.7560847,520.936508 C26.1680797,520.643032 26.3740741,520.219756 26.3740741,519.666667 C26.3740741,519.339328 26.2612004,519.074075 26.0354497,518.870899 C25.809699,518.667724 25.5275149,518.506879 25.1888889,518.38836 C24.8502629,518.269841 24.3761935,518.13157 23.7666667,517.973545 C22.9201016,517.759082 22.2315723,517.5418 21.7010582,517.321693 C21.1705441,517.101586 20.7134058,516.765787 20.3296296,516.314286 C19.9458535,515.862784 19.7539683,515.253267 19.7539683,514.485714 C19.7539683,513.571424 20.0813018,512.792596 20.7359788,512.149206 C21.3906558,511.505817 22.2484956,511.105115 23.3095238,510.94709 L23.3095238,509.880423 C23.3095238,509.62081 23.3885354,509.409172 23.5465608,509.245503 C23.7045863,509.081833 23.9134026,509 24.1730159,509 C24.4326292,509 24.6414454,509.081833 24.7994709,509.245503 C24.9574964,509.409172 25.0365079,509.62081 25.0365079,509.880423 L25.0365079,510.930159 C26.1765489,511.076897 27.1585497,511.488886 27.9825397,512.166138 C28.2534405,512.369313 28.3888889,512.634566 28.3888889,512.961905 C28.3888889,513.198943 28.3183429,513.407759 28.1772487,513.58836 C28.0361545,513.76896 27.8696659,513.859259 27.6777778,513.859259 C27.57619,513.859259 27.4774255,513.842328 27.3814815,513.808466 C27.2855374,513.774603 27.1585546,513.706879 27.0005291,513.605291 C26.5377402,513.277953 26.1003548,513.032452 25.6883598,512.868783 C25.2763648,512.705114 24.7881862,512.62328 24.2238095,512.62328 C23.5239824,512.62328 22.9652578,512.778482 22.547619,513.088889 C22.1299803,513.399296 21.921164,513.825394 21.921164,514.367196 C21.921164,514.739684 22.0396814,515.041621 22.2767196,515.273016 C22.5137578,515.50441 22.812873,515.682186 23.1740741,515.806349 C23.5352752,515.930512 24.0262756,516.071604 24.6470899,516.22963 C25.47108,516.432805 26.1426782,516.641622 26.6619048,516.856085 C27.1811313,517.070548 27.6241604,517.39506 27.9910053,517.82963 C28.3578502,518.2642 28.5412698,518.853965 28.5412698,519.598942 Z" id="$" fill="#412BBC"></path>
            <g id="Group" transform="translate(0.000000, 432.000000)">
                <rect id="Rectangle" fill="#412BBC" x="0" y="0" width="2" height="12" rx="1"></rect>
                <rect id="Rectangle" fill="#412BBC" x="18" y="0" width="2" height="12" rx="1"></rect>
                <rect id="Rectangle" fill="#412BBC" x="24" y="0" width="2" height="12" rx="1"></rect>
                <path d="M10,11 C11.6568542,11 13,8.76142375 13,6 C13,3.23857625 11.6568542,1 10,1 C8.34314575,1 7,3.23857625 7,6 C7,8.76142375 8.34314575,11 10,11 Z" id="Oval" stroke="#412BBC" stroke-width="2"></path>
                <path d="M33,11 C34.6568542,11 36,8.76142375 36,6 C36,3.23857625 34.6568542,1 33,1 C31.3431458,1 30,3.23857625 30,6 C30,8.76142375 31.3431458,11 33,11 Z" id="Oval" stroke="#412BBC" stroke-width="2"></path>
                <path d="M44,11 C45.6568542,11 47,8.76142375 47,6 C47,3.23857625 45.6568542,1 44,1 C42.3431458,1 41,3.23857625 41,6 C41,8.76142375 42.3431458,11 44,11 Z" id="Oval" stroke="#412BBC" stroke-width="2"></path>
            </g>
            <g id="Group" transform="translate(24.500000, 474.000000) scale(-1, 1) translate(-24.500000, -474.000000) translate(1.000000, 468.000000)">
                <rect id="Rectangle" fill="#412BBC" x="0" y="0" width="2" height="12" rx="1"></rect>
                <rect id="Rectangle" fill="#412BBC" x="18" y="0" width="2" height="12" rx="1"></rect>
                <rect id="Rectangle" fill="#412BBC" x="24" y="0" width="2" height="12" rx="1"></rect>
                <path d="M10,11 C11.6568542,11 13,8.76142375 13,6 C13,3.23857625 11.6568542,1 10,1 C8.34314575,1 7,3.23857625 7,6 C7,8.76142375 8.34314575,11 10,11 Z" id="Oval" stroke="#412BBC" stroke-width="2"></path>
                <path d="M33,11 C34.6568542,11 36,8.76142375 36,6 C36,3.23857625 34.6568542,1 33,1 C31.3431458,1 30,3.23857625 30,6 C30,8.76142375 31.3431458,11 33,11 Z" id="Oval" stroke="#412BBC" stroke-width="2"></path>
                <path d="M44,11 C45.6568542,11 47,8.76142375 47,6 C47,3.23857625 45.6568542,1 44,1 C42.3431458,1 41,3.23857625 41,6 C41,8.76142375 42.3431458,11 44,11 Z" id="Oval" stroke="#412BBC" stroke-width="2"></path>
            </g>
            <rect id="Rectangle" fill="#412BBC" x="46" y="450" width="2" height="12" rx="1"></rect>
            <rect id="Rectangle" fill="#412BBC" x="12" y="450" width="2" height="12" rx="1"></rect>
            <rect id="Rectangle" fill="#412BBC" x="18" y="450" width="2" height="12" rx="1"></rect>
            <path d="M4,461 C5.65685425,461 7,458.761424 7,456 C7,453.238576 5.65685425,451 4,451 C2.34314575,451 1,453.238576 1,456 C1,458.761424 2.34314575,461 4,461 Z" id="Oval" stroke="#412BBC" stroke-width="2"></path>
            <path d="M38,461 C39.6568542,461 41,458.761424 41,456 C41,453.238576 39.6568542,451 38,451 C36.3431458,451 35,453.238576 35,456 C35,458.761424 36.3431458,461 38,461 Z" id="Oval" stroke="#412BBC" stroke-width="2"></path>
            <path d="M27,461 C28.6568542,461 30,458.761424 30,456 C30,453.238576 28.6568542,451 27,451 C25.3431458,451 24,453.238576 24,456 C24,458.761424 25.3431458,461 27,461 Z" id="Oval" stroke="#412BBC" stroke-width="2"></path>
            <path d="M5,390 L3,390 C1.34314575,390 -3.21964677e-15,388.656854 -3.55271368e-15,387 L-3.55271368e-15,381 C-3.71924713e-15,379.343146 1.34314575,378 3,378 L41,378 L41,372 L3,372 C1.34314575,372 -3.21964677e-15,370.656854 -3.55271368e-15,369 L-3.55271368e-15,363 C-3.71924713e-15,361.343146 1.34314575,360 3,360 L45,360 C46.6568542,360 48,361.343146 48,363 L48,369 C48,370.656854 46.6568542,372 45,372 L43,372 L43,378 L45,378 C46.6568542,378 48,379.343146 48,381 L48,387 C48,388.656854 46.6568542,390 45,390 L7,390 L7,396 L45,396 C46.6568542,396 48,397.343146 48,399 L48,405 C48,406.656854 46.6568542,408 45,408 L3,408 C1.34314575,408 -3.21964677e-15,406.656854 -3.55271368e-15,405 L-3.55271368e-15,399 C-3.71924713e-15,397.343146 1.34314575,396 3,396 L5,396 L5,390 Z M3,398 C2.44771525,398 2,398.447715 2,399 L2,405 C2,405.552285 2.44771525,406 3,406 L45,406 C45.5522847,406 46,405.552285 46,405 L46,399 C46,398.447715 45.5522847,398 45,398 L3,398 Z M6,404 C4.8954305,404 4,403.104569 4,402 C4,400.895431 4.8954305,400 6,400 C7.1045695,400 8,400.895431 8,402 C8,403.104569 7.1045695,404 6,404 Z M3,380 C2.44771525,380 2,380.447715 2,381 L2,387 C2,387.552285 2.44771525,388 3,388 L45,388 C45.5522847,388 46,387.552285 46,387 L46,381 C46,380.447715 45.5522847,380 45,380 L3,380 Z M6,386 C4.8954305,386 4,385.104569 4,384 C4,382.895431 4.8954305,382 6,382 C7.1045695,382 8,382.895431 8,384 C8,385.104569 7.1045695,386 6,386 Z M3,362 C2.44771525,362 2,362.447715 2,363 L2,369 C2,369.552285 2.44771525,370 3,370 L45,370 C45.5522847,370 46,369.552285 46,369 L46,363 C46,362.447715 45.5522847,362 45,362 L3,362 Z M6,368 C4.8954305,368 4,367.104569 4,366 C4,364.895431 4.8954305,364 6,364 C7.1045695,364 8,364.895431 8,366 C8,367.104569 7.1045695,368 6,368 Z"
                  id="Combined-Shape" fill="#ffffff"></path>
            <g id="Group-2" transform="translate(1.000000, 293.000000)" stroke="#412BBC" stroke-linecap="round" stroke-linejoin="round" stroke-width="2">
                <path d="M39.0816,29.6816406 C43.6938667,28.5605469 46,25.3333333 46,20 C46,16 43.6938667,13.3818333 39.0816,12.1455 C38.6760333,5.3955 32.9881333,-5.32907052e-15 26.1318333,-5.32907052e-15 C21.9688333,-5.32907052e-15 17.9377,1.99725 15.4399,5.256 C15.3824,5.22675 15.3218333,5.2065 15.2635667,5.1795 C15.1117667,5.1075 14.9576667,5.03925 14.8005,4.97775 C14.7131,4.944 14.6257,4.91325 14.5375333,4.88325 C14.3819,4.83 14.2239667,4.78275 14.0629667,4.74 C13.9748,4.71675 13.8874,4.69275 13.7984667,4.67325 C13.6259667,4.635 13.4496333,4.60575 13.2717667,4.5795 C13.1943333,4.56825 13.1184333,4.55325 13.0402333,4.545 C12.7857,4.51725 12.5281,4.5 12.2666667,4.5 C8.4617,4.5 5.36666667,7.52775 5.36666667,11.25 C5.36666667,11.34525 5.3728,11.439 5.37893333,11.53275 L5.37893333,11.53575 C2.19036667,13.23675 1.42108547e-14,16.79925 1.42108547e-14,20.3655 C1.42108547e-14,25.67775 4.41753333,30 9.84783333,30" id="Path"></path>
                <g id="Group" transform="translate(12.000000, 21.000000)">
                    <polyline id="Path-4" points="3.01980663e-14 6 6 -1.24344979e-14 12 6"></polyline>
                    <path d="M6,-1.77635684e-15 L6,12" id="Line"></path>
                </g>
                <g id="Group" transform="translate(31.000000, 33.000000) scale(1, -1) translate(-31.000000, -33.000000) translate(25.000000, 27.000000)">
                    <polyline id="Path-4" points="3.01980663e-14 6 6 -1.24344979e-14 12 6"></polyline>
                    <path d="M6,-1.77635684e-15 L6,12" id="Line"></path>
                </g>
            </g>
            <g id="Group" transform="translate(1.000000, 221.000000)" stroke="#412BBC" stroke-linejoin="round" stroke-width="2">
                <polygon id="Rectangle" points="21 0 33 0 33 8 21 8 25 4"></polygon>
                <polyline id="Path-20" stroke-linecap="round" points="1.13846432e-13 38 13 20 23 30 33 12 46 38"></polyline>
                <path d="M33,13 L33,1" id="Line" stroke-linecap="round"></path>
            </g>
            <circle id="Oval" stroke="#412BBC" stroke-width="2" cx="6" cy="150" r="5"></circle>
            <circle id="Oval" stroke="#412BBC" stroke-width="2" cx="6" cy="168" r="5"></circle>
            <circle id="Oval" stroke="#412BBC" stroke-width="2" cx="6" cy="186" r="5"></circle>
            <rect id="Rectangle" fill="#412BBC" x="16" y="167" width="14" height="2" rx="1"></rect>
            <rect id="Rectangle" fill="#412BBC" x="16" y="149" width="32" height="2" rx="1"></rect>
            <rect id="Rectangle" fill="#412BBC" x="16" y="185" width="8" height="2" rx="1"></rect>
            <rect id="Rectangle" stroke="#412BBC" stroke-width="2" x="29" y="177" width="18" height="14" rx="4"></rect>
            <path d="M42,177 C42,175.191169 42,173.541169 42,172.05 C42,169.813247 40.209139,168 38,168 C35.790861,168 34,169.813247 34,172.05 C34,173.541169 34,175.191169 34,177" id="Oval" stroke="#412BBC" stroke-width="2" stroke-linecap="round"></path>
            <rect id="Rectangle" stroke="#412BBC" stroke-width="2" x="6" y="93" width="36" height="26" rx="4"></rect>
            <path d="M33,82 C33,77.0294373 28.9705627,73 24,73 C19.0294373,73 15,77.0294373 15,82 C15,85.3137085 15,88.9803752 15,93" id="Oval" stroke="#412BBC" stroke-width="2" stroke-linecap="round"></path>
            <circle id="Oval" stroke="#412BBC" stroke-width="2" cx="24" cy="106" r="2"></circle>
            <circle id="Oval" stroke="#412BBC" stroke-width="2" cx="15" cy="106" r="2"></circle>
            <circle id="Oval" stroke="#412BBC" stroke-width="2" cx="33" cy="106" r="2"></circle>
            <path d="M26.1818182,31.1586415 C26.1818182,31.9787447 26.6426321,32.7280947 27.3701692,33.0936694 L35.6196237,37.238877 C38.3046504,38.5885528 40,41.3448834 40,44.3589057 L40,45 C40,46.6568542 38.6568542,48 37,48 L3,48 C1.34314575,48 -1.03250741e-14,46.6568542 -1.0658141e-14,45 L-1.0658141e-14,44.1887925 C-1.0658141e-14,41.2763826 1.58337159,38.5958023 4.12924261,37.2008822 L11.8342396,32.9764212 C12.5243532,32.5985573 12.9545455,31.8703302 12.9545455,31.0779245 L12.9545455,28.2501349 C12.8510031,28.1121878 12.7286958,27.9428317 12.5915425,27.7437524 C12.1634258,27.122337 11.7365825,26.4175311 11.3382111,25.6404082 C10.7429995,24.4792994 10.2645117,23.2600185 9.94374172,21.9978071 C9.12833748,21.321623 8.63636364,20.3147678 8.63636364,19.2264151 L8.63636364,15.754717 C8.63636364,14.888237 8.95053745,14.0713268 9.5,13.4279169 L9.5,8.86659895 C9.49632314,8.82984391 9.49252082,8.78593048 9.48889319,8.73519922 C9.39654028,7.44367275 9.61820326,5.91394221 10.4237347,4.42886678 C11.9326075,1.64711334 15.0455682,0 20,0 C24.9540493,0 28.0669132,1.64711034 29.5759211,4.42882923 C30.381593,5.91401224 30.6033498,7.44382909 30.5110825,8.73531756 C30.5074629,8.78598193 30.503669,8.82983911 30.5,8.86654942 L30.5,13.4279169 C31.0494625,14.0713268 31.3636364,14.888237 31.3636364,15.754717 L31.3636364,19.2264151 C31.3636364,20.6270826 30.5490236,21.8687806 29.3292618,22.4590629 C28.7070841,24.2635886 27.854038,25.949405 26.7804672,27.4724615 C26.5753154,27.7641173 26.3737612,28.0322861 26.1818182,28.2694942 L26.1818182,31.1586415 Z M26.4721944,34.8807457 C25.0681797,34.1752526 24.1818182,32.7339007 24.1818182,31.1586415 L24.1818182,27.5301363 L24.428998,27.2474342 C24.6422893,27.0034906 24.8876676,26.6871063 25.1451913,26.3209965 C26.1890544,24.840085 27.0029703,23.1832717 27.5742922,21.3985879 L27.7332174,20.902141 L28.2312079,20.7481209 C28.8983917,20.5417722 29.3636364,19.9264954 29.3636364,19.2264151 L29.3636364,15.754717 C29.3636364,15.3034597 29.1686326,14.880239 28.8279302,14.5710161 L28.5,14.2733853 L28.5,8.81132075 L28.5085019,8.68119926 C28.5093971,8.67437799 28.5124968,8.6441701 28.5161671,8.59279568 C28.5836074,7.64881658 28.4145007,6.48221322 27.8179312,5.38249152 C26.6785442,3.28213495 24.255445,2 20,2 C15.7441818,2 13.3210175,3.28213194 12.1817653,5.38245398 C11.585326,6.48204763 11.4162967,7.64854496 11.4837995,8.59254987 C11.4874782,8.64399577 11.4905854,8.67425111 11.4914839,8.6810915 L11.5,8.81132075 L11.5,14.2733853 L11.1720698,14.5710161 C10.8313674,14.880239 10.6363636,15.3034597 10.6363636,15.754717 L10.6363636,19.2264151 C10.6363636,19.7725173 10.9174212,20.2747209 11.3756269,20.5724503 L11.7154269,20.793243 L11.8056642,21.1883008 C12.0840564,22.4070978 12.5375402,23.5957435 13.1179885,24.7280527 C13.4749371,25.42437 13.8573652,26.0558375 14.2385199,26.6090871 C14.4633711,26.9354607 14.6339628,27.158743 14.7232617,27.2660705 L14.9545455,27.5440479 L14.9545455,31.0779245 C14.9545455,32.600043 14.1267267,34.00137 12.7952574,34.7304008 L5.09051407,38.9547229 C3.18589971,39.9982891 2,42.0059665 2,44.1887925 L2,45 C2,45.5522847 2.44771525,46 3,46 L37,46 C37.5522847,46 38,45.5522847 38,45 L38,44.3589057 C38,42.1000828 36.7302194,40.0356264 34.7215805,39.0259188 L26.4721944,34.8807457 Z M38.6581782,35.0424295 L44.3499918,38.5469853 C47.1666076,40.0307374 48,41.6391828 48,47 C48,47.5522847 47.5522847,48 47,48 C46.4477153,48 46,47.5522847 46,47 C46,42.3375839 45.5290342,41.4286211 43.3598998,40.283438 L37.6686171,36.7791618 C37.0512449,36.4544122 36.5693586,35.8548802 36.2172427,35.1065484 C35.6913,33.9918486 36.4797111,32.6669452 37.7226451,32.6669452 L41.1801459,32.6669452 L41.2806916,32.6720128 C41.3002029,32.6739846 41.3491679,32.6779172 41.4236392,32.6821578 C42.096382,32.720465 42.8768471,32.6795438 43.592386,32.5031327 C43.856041,32.4381303 44.0976598,32.3568832 44.3125172,32.2596456 C44.6431724,32.109846 44.7731889,31.616485 44.5431551,31.2713316 C41.5163444,26.7284288 39.3064914,21.5496635 39.1952639,16.4455514 C39.1846386,16.3772037 39.1673236,16.2738194 39.1427347,16.1394016 C39.0873454,15.8366104 39.0164817,15.4976604 38.9288642,15.1319235 C38.6788962,14.0884962 38.3465706,13.0462451 37.924392,12.0819001 C36.7854049,9.48021264 35.2571468,8 33.3117666,8 C32.7594818,8 32.3117666,7.55228475 32.3117666,7 C32.3117666,6.44771525 32.7594818,6 33.3117666,6 C36.2376336,6 38.3339706,8.03043233 39.756513,11.2798198 C40.2308698,12.363351 40.5981581,13.5152531 40.8738309,14.6659789 C40.9701877,15.0681955 41.0484106,15.4423453 41.1100888,15.7795154 C41.147775,15.9855309 41.1719291,16.136235 41.1840638,16.2226325 L41.1936169,16.3434548 C41.2786778,20.9997036 43.3611317,25.8902187 46.2074833,30.1622727 C47.1107405,31.5175619 46.610959,33.4140347 45.1374921,34.0815721 C44.8049341,34.2320774 44.4482991,34.3520001 44.0711368,34.4449868 C43.1302272,34.6769616 42.1646178,34.7275902 41.3099397,34.6789233 C41.2391282,34.6748911 41.1805115,34.6707179 41.1352153,34.6669452 L38.2641382,34.6669452 C38.3891131,34.8418262 38.5227439,34.9696565 38.6581782,35.0424295 Z" id="Combined-Shape" fill="#412BBC" fill-rule="nonzero"></path>
        </g>
    </g>
</svg>