<?xml version="1.0" encoding="UTF-8"?>
<svg width="40px" height="34px" viewBox="0 0 40 34" version="1.1" xmlns="http://www.w3.org/2000/svg" xmlns:xlink="http://www.w3.org/1999/xlink">
    <g id="Design" stroke="none" stroke-width="1" fill="none" fill-rule="evenodd" stroke-linecap="round" stroke-linejoin="round">
        <g id="01.00---FAQ" transform="translate(-934.000000, -1053.000000)" stroke="#412BBC" stroke-width="2">
            <g id="Questions" transform="translate(352.000000, 396.000000)">
                <g id="Additional-info" transform="translate(208.000000, 658.000000)">
                    <g id="icon-message-color" transform="translate(375.000000, 0.000000)">
                        <path d="M10,18 L6,22 L6,18 L2,18 C0.8954305,18 1.3527075e-16,17.1045695 0,16 L0,2 C-1.3527075e-16,0.8954305 0.8954305,2.02906125e-16 2,0 L22,0 C23.1045695,-2.02906125e-16 24,0.8954305 24,2 L24,16 C24,17.1045695 23.1045695,18 22,18 L10,18 Z" id="Combined-Shape"></path>
                        <path d="M23.9960938,10.0000182 L36.0000185,10 C37.104588,9.99999873 38.0000196,10.8954282 38.0000208,11.9999977 C38.0000208,11.9999992 38.0000208,12.0000006 38.0000208,12.0000021 L38,26.0000182 C37.9999989,27.1045869 37.1045687,28.0000161 36,28.0000161 L34,28.0000182 L34,32.0000182 L30.0578613,28.0000182 L16,28.0000182 C14.8954305,28.0000182 14,27.1045877 14,26.0000182 L14,18.0000182" id="Combined-Shape"></path>
                    </g>
                </g>
            </g>
        </g>
    </g>
</svg>