<?xml version="1.0" standalone="no"?>
<!DOCTYPE svg PUBLIC "-//W3C//DTD SVG 20010904//EN"
 "http://www.w3.org/TR/2001/REC-SVG-20010904/DTD/svg10.dtd">
<svg version="1.0" xmlns="http://www.w3.org/2000/svg"
 width="260.000000pt" height="280.000000pt" viewBox="0 0 260.000000 280.000000"
 preserveAspectRatio="xMidYMid meet">
<metadata>
Created by potrace 1.16, written by Peter Selinger 2001-2019
</metadata>
<g transform="translate(0.000000,280.000000) scale(0.100000,-0.100000)"
fill="#000000" stroke="none">
<path d="M10 1498 l0 -1298 1295 0 1295 0 0 1295 0 1295 -1295 2 -1295 3 0
-1297z m1543 658 c95 -32 147 -64 212 -131 89 -91 147 -226 166 -384 15 -132
-14 -419 -67 -661 -45 -201 -127 -430 -154 -430 -12 0 -11 -16 -18 177 -8 191
-15 208 -66 152 -19 -20 -65 -89 -104 -155 -80 -135 -108 -174 -127 -174 -45
0 -15 184 66 399 22 58 38 109 37 113 -2 5 -39 -45 -82 -109 -108 -160 -205
-291 -223 -297 -24 -9 -26 21 -8 118 17 97 17 145 0 148 -5 1 -44 -38 -85 -87
-196 -232 -203 -234 -177 -38 20 143 21 179 8 187 -14 9 -56 -29 -138 -123
-41 -47 -84 -92 -95 -100 -21 -14 -21 -13 -15 35 3 27 28 119 55 204 55 176
65 217 52 225 -5 3 -34 -17 -66 -45 -31 -27 -61 -50 -66 -50 -16 0 -8 49 27
167 19 65 64 220 100 345 36 125 79 257 95 292 85 178 244 260 490 252 80 -3
123 -10 183 -30z"/>
<path d="M1124 1926 c-132 -59 -89 -259 56 -259 133 0 186 167 79 246 -34 24
-96 31 -135 13z"/>
<path d="M1580 1892 c-45 -22 -83 -93 -74 -137 16 -77 90 -134 156 -120 135
29 157 209 32 261 -44 18 -72 18 -114 -4z"/>
<path d="M603 95 c0 -27 2 -38 4 -22 2 15 8 27 13 27 5 0 11 -12 13 -27 4 -26
4 -26 6 5 1 22 -4 32 -13 32 -8 0 -17 8 -19 18 -3 9 -5 -5 -4 -33z"/>
<path d="M1102 95 c0 -27 2 -43 5 -35 3 8 13 24 22 35 15 18 15 19 -1 7 -14
-12 -17 -10 -21 15 -2 16 -4 6 -5 -22z"/>
<path d="M720 120 c-4 -25 1 -54 10 -63 4 -5 5 3 3 17 -4 19 -1 26 11 26 9 0
16 -8 16 -19 0 -11 4 -22 9 -25 5 -4 7 3 4 15 -3 12 -1 24 4 28 7 4 6 11 -3
19 -8 7 -14 8 -14 2 0 -14 -27 -13 -33 3 -4 8 -6 8 -7 -3z"/>
<path d="M949 118 c-2 -25 3 -53 11 -62 5 -5 6 1 3 14 -3 12 -1 25 4 29 7 4 6
11 -3 19 -11 10 -14 10 -15 0z"/>
<path d="M1500 125 c-1 -5 -1 -21 0 -34 1 -13 -4 -28 -12 -32 -9 -6 -3 -9 17
-9 17 0 25 4 18 8 -6 4 -13 23 -16 42 -2 19 -5 31 -7 25z"/>
<path d="M1557 123 c22 -4 22 -6 8 -33 -22 -42 -17 -51 5 -10 25 46 25 50 -7
49 -24 -2 -25 -2 -6 -6z"/>
<path d="M1620 125 c-1 -5 -1 -21 0 -34 1 -13 -4 -28 -12 -32 -9 -6 -3 -9 17
-9 17 0 25 4 18 8 -6 4 -13 23 -16 42 -2 19 -5 31 -7 25z"/>
<path d="M1680 125 c-1 -5 -1 -21 0 -34 1 -13 -4 -28 -12 -32 -9 -6 -3 -9 17
-9 17 0 25 4 18 8 -6 4 -13 23 -16 42 -2 19 -5 31 -7 25z"/>
<path d="M1737 123 c22 -4 22 -6 8 -33 -22 -42 -17 -51 5 -10 25 46 25 50 -7
49 -24 -2 -25 -2 -6 -6z"/>
<path d="M1787 123 c-12 -12 -7 -33 7 -33 26 0 28 -20 4 -29 -14 -6 -17 -10
-7 -10 8 -1 20 4 26 10 14 14 6 39 -13 39 -20 0 -17 18 4 23 14 4 14 5 1 6 -9
0 -19 -2 -22 -6z"/>
<path d="M1857 123 c22 -4 22 -6 8 -33 -22 -42 -17 -51 5 -10 25 46 25 50 -7
49 -24 -2 -25 -2 -6 -6z"/>
<path d="M1910 106 c-15 -29 -8 -56 15 -56 23 0 31 31 12 45 -12 9 -14 14 -5
23 7 7 8 12 2 12 -6 0 -16 -11 -24 -24z m22 -31 c0 -5 -5 -11 -11 -13 -6 -2
-11 4 -11 13 0 9 5 15 11 13 6 -2 11 -8 11 -13z"/>
<path d="M1977 123 c22 -4 22 -6 8 -33 -22 -42 -17 -51 5 -10 25 46 25 50 -7
49 -24 -2 -25 -2 -6 -6z"/>
<path d="M2037 123 c22 -4 22 -6 8 -33 -22 -42 -17 -51 5 -10 25 46 25 50 -7
49 -24 -2 -25 -2 -6 -6z"/>
<path d="M550 93 c0 -10 4 -14 8 -8 4 6 11 13 16 18 5 4 2 7 -7 7 -10 0 -17
-8 -17 -17z"/>
<path d="M661 83 c-1 -27 3 -33 19 -33 16 0 20 6 19 33 -2 30 -2 30 -6 5 -6
-36 -20 -36 -26 0 -4 25 -4 25 -6 -5z"/>
<path d="M807 104 c-13 -13 -7 -24 14 -24 11 0 19 5 17 12 -5 14 -22 21 -31
12z"/>
<path d="M861 78 c2 -28 2 -29 6 -8 3 14 10 28 17 32 7 5 5 8 -6 8 -14 0 -18
-8 -17 -32z"/>
<path d="M900 93 c0 -10 4 -14 8 -8 4 6 11 13 16 18 5 4 2 7 -7 7 -10 0 -17
-8 -17 -17z"/>
<path d="M994 95 c-8 -21 2 -45 20 -45 19 0 29 29 15 46 -15 18 -28 18 -35 -1z
m31 -15 c0 -7 -6 -15 -12 -17 -8 -3 -13 4 -13 17 0 13 5 20 13 18 6 -3 12 -11
12 -18z"/>
<path d="M1054 95 c-8 -20 2 -45 18 -44 10 0 10 2 1 6 -7 2 -13 13 -13 23 0
10 6 21 13 23 9 4 9 6 -1 6 -7 1 -15 -6 -18 -14z"/>
<path d="M1194 95 c-8 -20 2 -45 18 -44 10 0 10 2 1 6 -7 2 -13 13 -13 23 0
10 6 21 13 23 9 4 9 6 -1 6 -7 1 -15 -6 -18 -14z"/>
<path d="M1244 95 c-8 -21 2 -45 20 -45 7 0 16 7 20 15 8 21 -3 45 -20 45 -8
0 -17 -7 -20 -15z m31 -15 c0 -7 -6 -15 -12 -17 -8 -3 -13 4 -13 17 0 13 5 20
13 18 6 -3 12 -11 12 -18z"/>
<path d="M1301 77 c2 -31 2 -31 6 -4 2 15 8 27 13 27 5 0 11 -12 13 -27 l4
-28 2 28 c0 15 5 27 10 27 5 0 12 -12 14 -27 4 -27 4 -27 6 4 1 29 -1 31 -34
31 -33 0 -35 -2 -34 -31z"/>
<path d="M562 65 c-11 -12 -10 -15 3 -15 8 0 15 7 15 15 0 18 -2 18 -18 0z"/>
<path d="M912 65 c-11 -12 -10 -15 3 -15 8 0 15 7 15 15 0 18 -2 18 -18 0z"/>
<path d="M1120 71 c0 -5 5 -13 10 -16 6 -3 10 -2 10 4 0 5 -4 13 -10 16 -5 3
-10 2 -10 -4z"/>
<path d="M808 58 c5 -5 16 -8 23 -6 8 3 3 7 -10 11 -17 4 -21 3 -13 -5z"/>
</g>
</svg>
